<svg width="82" height="82" viewBox="0 0 82 82" fill="none" xmlns="http://www.w3.org/2000/svg">
<mask id="mask0_2397_11" style="mask-type:luminance" maskUnits="userSpaceOnUse" x="0" y="0" width="82" height="82">
<path d="M81.5238 0H0V81.5238H81.5238V0Z" fill="white"/>
</mask>
<g mask="url(#mask0_2397_11)">
<path d="M51.5085 0.26825C52.3556 1.05185 52.6885 1.73081 52.9714 2.82582C53.0052 2.94691 53.0389 3.06801 53.0737 3.19278C53.7161 5.58412 53.7161 5.58412 53.2038 6.69222C52.7379 7.49135 52.0255 7.96577 51.1515 8.2301C50.8685 8.3024 50.5846 8.37133 50.3 8.43729C50.1496 8.47482 49.9992 8.51234 49.8443 8.551C49.368 8.6691 48.8909 8.78276 48.4135 8.89631C48.0887 8.97605 47.7639 9.05607 47.4392 9.1364C46.6469 9.33173 45.8537 9.5231 45.0598 9.71235C45.0073 10.1853 44.9547 10.6582 44.9006 11.1454C45.0416 11.1688 45.1826 11.1922 45.3279 11.2163C49.6755 12.0035 53.3197 14.0124 56.5241 17.0368C56.6434 17.1458 56.7626 17.2548 56.8855 17.367C59.394 19.7437 61.3835 23.1946 62.1667 26.5605C62.3058 27.0733 62.3058 27.0733 62.6873 27.4194C62.906 27.5177 63.1271 27.6105 63.3503 27.6981C64.163 28.0962 64.6613 28.8988 65.1124 29.6555C65.4369 30.8008 65.4601 32.0461 64.9693 33.1491C64.4152 34.1135 63.7381 34.7223 62.7339 35.1886C62.4166 35.2479 62.0982 35.302 61.7786 35.3478C61.7684 35.525 61.7684 35.525 61.758 35.7059C61.6389 37.5647 61.4248 39.411 61.2142 41.2613C61.1726 41.63 61.131 41.9988 61.0894 42.3675C60.977 43.3634 60.864 44.3592 60.7508 45.3549C60.68 45.9781 60.6093 46.6012 60.5387 47.2243C60.3426 48.9541 60.1463 50.6838 59.9494 52.4135C59.9369 52.5238 59.9243 52.6341 59.9114 52.7477C59.886 52.9712 59.8605 53.1946 59.8351 53.4181C59.8224 53.529 59.8098 53.64 59.7968 53.7542C59.7778 53.9208 59.7778 53.9208 59.7585 54.0908C59.5535 55.8915 59.3497 57.6924 59.1463 59.4933C58.9369 61.348 58.7266 63.2026 58.5153 65.0571C58.397 66.096 58.2791 67.135 58.1621 68.1742C58.052 69.1512 57.9408 70.1281 57.8288 71.105C57.788 71.4622 57.7476 71.8196 57.7077 72.1769C57.0582 77.9818 57.0582 77.9818 54.8641 80.0829C53.717 80.995 52.4563 81.5406 50.9955 81.5468C50.8096 81.5479 50.6237 81.5491 50.4321 81.5502C50.127 81.5509 50.127 81.5509 49.8157 81.5516C49.5989 81.5526 49.382 81.5536 49.1651 81.5547C48.4533 81.5581 47.7415 81.5597 47.0296 81.5613C46.784 81.562 46.5384 81.5626 46.2928 81.5633C45.1382 81.5663 43.9836 81.5686 42.8289 81.5699C41.4992 81.5715 40.1696 81.5756 38.8399 81.5821C37.8102 81.5869 36.7806 81.5892 35.751 81.5898C35.1369 81.5901 34.523 81.5916 33.9089 81.5956C33.3303 81.5993 32.7518 81.5999 32.1732 81.5983C31.8623 81.5982 31.5513 81.6012 31.2404 81.6044C29.2043 81.5925 27.6298 80.9794 26.1119 79.6127C24.5136 77.8246 24.2305 75.688 23.9797 73.3927C23.9466 73.1049 23.9133 72.8172 23.8799 72.5295C23.809 71.9163 23.7394 71.3031 23.6709 70.6897C23.5655 69.7479 23.4567 68.8065 23.3473 67.8652C23.1329 66.0174 22.9221 64.1691 22.7119 62.3208C22.6285 61.5872 22.5449 60.8537 22.4613 60.1202C22.2645 58.3927 22.0679 56.6653 21.8716 54.9378C21.6695 53.1601 21.4668 51.3824 21.264 49.6048C21.0885 48.0672 20.9134 46.5296 20.7386 44.9919C20.6347 44.0781 20.5306 43.1643 20.4263 42.2505C20.3287 41.3968 20.2317 40.5431 20.1349 39.6893C20.0994 39.3763 20.0637 39.0634 20.0278 38.7505C19.979 38.3241 19.9307 37.8977 19.8826 37.4712C19.8683 37.3472 19.8539 37.2233 19.8392 37.0956C19.7737 36.5101 19.7265 35.9371 19.7429 35.3478C19.6148 35.3412 19.4867 35.3347 19.3548 35.3279C18.071 35.0126 17.2653 34.238 16.5733 33.1423C16.0643 32.1425 16.052 30.8735 16.373 29.8128C16.8129 28.849 17.4273 28.1341 18.3098 27.5457C18.5127 27.4921 18.5127 27.4921 18.7197 27.4375C19.1677 27.2455 19.1677 27.2455 19.3479 26.6588C19.419 26.4177 19.4874 26.1759 19.5538 25.9335C19.9974 24.4687 20.6016 23.1537 21.3351 21.8136C21.4135 21.6685 21.492 21.5233 21.5727 21.3738C24.1521 16.849 28.6272 13.2697 33.6232 11.7855C34.2452 11.6197 34.8659 11.486 35.4976 11.3643C35.6064 11.343 35.7152 11.3217 35.8272 11.2997C36.0917 11.2478 36.3563 11.1966 36.6209 11.1454C36.6158 10.9047 36.6158 10.9047 36.6107 10.6591C36.5991 10.0567 36.5919 9.45431 36.5859 8.85184C36.5827 8.59241 36.5784 8.33299 36.5728 8.07359C36.5362 6.31676 36.5236 4.75964 37.7454 3.3632C38.9234 2.32328 40.6929 2.0541 42.1782 1.67889C42.4646 1.60602 42.4646 1.60602 42.7567 1.53168C43.1579 1.43004 43.5592 1.32891 43.9606 1.22827C44.5705 1.07475 45.1795 0.917868 45.7885 0.760856C46.1806 0.66196 46.5727 0.563266 46.965 0.464795C47.1446 0.418033 47.3243 0.37127 47.5095 0.323091C48.8095 0.00264886 50.2578 -0.334743 51.5085 0.26825ZM48.6434 3.06015C48.4643 3.10272 48.2852 3.14529 48.1007 3.18916C47.9071 3.23592 47.7136 3.28268 47.5142 3.33086C47.3153 3.37883 47.1164 3.4268 46.9115 3.47622C46.4903 3.57803 46.0692 3.68041 45.6482 3.78304C45.1102 3.91404 44.5717 4.04257 44.033 4.17054C43.5177 4.29353 43.0032 4.41945 42.4886 4.54496C42.2957 4.59043 42.1027 4.63591 41.904 4.68276C41.7239 4.72734 41.5438 4.77192 41.3582 4.81785C41.1212 4.87513 41.1212 4.87513 40.8794 4.93357C40.2765 5.15593 39.7797 5.46465 39.4869 6.05014C39.4733 6.4086 39.4699 6.76746 39.4714 7.12617C39.4716 7.23174 39.4718 7.33732 39.4721 7.44609C39.4729 7.78355 39.4749 8.12099 39.477 8.45844C39.4778 8.68712 39.4785 8.9158 39.4791 9.14448C39.4808 9.70531 39.4839 10.2661 39.4869 10.827C40.3276 10.827 41.1683 10.827 42.0345 10.827C42.0423 10.6389 42.0501 10.4509 42.0582 10.2572C42.0701 10.0093 42.0822 9.76127 42.0942 9.51331C42.0992 9.38955 42.1041 9.26578 42.1092 9.13826C42.1153 9.01819 42.1215 8.89812 42.1278 8.7744C42.1328 8.66434 42.1378 8.55427 42.143 8.44087C42.205 8.04909 42.2824 7.80927 42.5122 7.48318C42.8908 7.30825 42.8908 7.30825 43.3799 7.17219C43.5661 7.11975 43.7524 7.06731 43.9442 7.01328C44.1568 6.95714 44.3694 6.90149 44.5822 6.84628C44.6965 6.81635 44.8109 6.78642 44.9287 6.75558C45.8099 6.52644 46.6935 6.30748 47.5776 6.08995C47.8443 6.02387 48.1111 5.95773 48.3778 5.89154C49.0231 5.7315 49.6687 5.57217 50.3143 5.41324C50.4973 4.79354 50.4148 4.40736 50.2446 3.78117C50.1989 3.60958 50.1531 3.43799 50.1059 3.2612C50.0514 3.06539 50.0514 3.06539 49.9958 2.86562C49.5054 2.86562 49.1198 2.94637 48.6434 3.06015ZM39.4869 13.693C39.4869 18.1068 39.4869 22.5205 39.4869 27.068C40.3276 27.068 41.1683 27.068 42.0345 27.068C42.0345 22.6543 42.0345 18.2405 42.0345 13.693C41.1938 13.693 40.3531 13.693 39.4869 13.693ZM26.3259 19.8475C24.9085 21.3371 23.8888 22.9941 23.007 24.8389C22.9531 24.9513 22.8992 25.0637 22.8437 25.1795C22.7941 25.2871 22.7446 25.3947 22.6935 25.5056C22.6501 25.5998 22.6067 25.694 22.562 25.7911C22.4058 26.2091 22.4058 26.2091 22.2905 27.068C27.0195 27.068 31.7485 27.068 36.6209 27.068C36.6209 22.8119 36.6209 18.5558 36.6209 14.1707C32.725 14.1707 28.9171 17.26 26.3259 19.8475ZM44.9006 14.1707C44.9006 18.4268 44.9006 22.6829 44.9006 27.068C49.6296 27.068 54.3586 27.068 59.231 27.068C59.0773 26.146 58.8397 25.5073 58.4448 24.6796C58.3813 24.5464 58.3177 24.4132 58.2523 24.276C57.3212 22.3817 56.071 20.7894 54.6134 19.2659C54.5225 19.1668 54.4316 19.0677 54.3379 18.9655C52.1488 16.6517 48.6644 14.7749 45.5375 14.1707C45.3273 14.1707 45.1172 14.1707 44.9006 14.1707ZM19.2652 30.571C19.0533 31.1123 19.0533 31.1123 19.106 31.6856C19.4259 32.1494 19.6832 32.4356 20.2491 32.5548C20.6933 32.5849 21.1311 32.5878 21.5762 32.5828C21.7467 32.5841 21.9172 32.5853 22.0928 32.5866C22.6651 32.5898 23.2371 32.5872 23.8094 32.5847C24.2192 32.5858 24.629 32.5872 25.0388 32.589C26.037 32.5925 27.0352 32.5917 28.0333 32.5894C28.8446 32.5876 29.6558 32.5874 30.467 32.5883C30.6401 32.5884 30.6401 32.5884 30.8168 32.5886C31.0513 32.5889 31.2858 32.5891 31.5204 32.5894C33.7196 32.5917 35.9188 32.5891 38.118 32.5848C40.0052 32.5812 41.8923 32.5818 43.7795 32.5855C45.9708 32.5898 48.1622 32.5914 50.3535 32.589C50.5872 32.5887 50.8208 32.5885 51.0545 32.5883C51.1694 32.5881 51.2844 32.588 51.4029 32.5879C52.2131 32.5872 53.0234 32.5884 53.8336 32.5902C54.9242 32.5927 56.0146 32.5909 57.1051 32.5863C57.5058 32.5853 57.9066 32.5856 58.3073 32.5873C58.8533 32.5895 59.3992 32.5868 59.9452 32.5828C60.1047 32.5846 60.2641 32.5864 60.4284 32.5882C61.1667 32.5777 61.5117 32.5609 62.1208 32.1128C62.4662 31.6942 62.4662 31.6942 62.4354 31.1183C62.2151 30.4453 62.0681 30.2925 61.4601 29.9341C60.9062 29.8406 60.3588 29.8482 59.7981 29.8532C59.5443 29.8517 59.5443 29.8517 59.2854 29.8502C58.7176 29.8477 58.1499 29.8497 57.5821 29.8517C57.1754 29.8508 56.7687 29.8497 56.362 29.8483C55.3715 29.8457 54.381 29.8461 53.3905 29.8479C52.5855 29.8494 51.7806 29.8496 50.9756 29.8489C50.861 29.8488 50.7464 29.8487 50.6284 29.8486C50.3957 29.8484 50.163 29.8482 49.9302 29.848C47.7479 29.8461 45.5655 29.8482 43.3831 29.8516C41.5105 29.8545 39.6378 29.854 37.7651 29.8511C35.5906 29.8477 33.4161 29.8463 31.2415 29.8483C31.0096 29.8485 30.7778 29.8487 30.5459 29.8489C30.4318 29.849 30.3177 29.8491 30.2002 29.8492C29.3961 29.8497 28.5921 29.8488 27.7881 29.8473C26.7059 29.8453 25.6238 29.8467 24.5417 29.8504C24.1441 29.8513 23.7464 29.851 23.3488 29.8496C22.8069 29.8479 22.2652 29.85 21.7234 29.8532C21.5652 29.8518 21.4069 29.8504 21.2439 29.8489C20.3912 29.8587 19.8615 29.8923 19.2652 30.571ZM22.6089 35.3478C23.1435 40.4458 23.1435 40.4458 23.7235 45.5383C23.8742 45.4923 24.0248 45.4463 24.1801 45.3989C25.3989 45.0494 26.5027 44.8564 27.7738 44.8914C29.6181 44.9315 30.4743 44.5552 31.8895 43.3346C33.1989 42.2927 34.6666 42.0499 36.3024 42.1945C37.0199 42.3801 37.702 42.643 38.356 42.9931C39.5476 43.5973 40.6709 43.5508 41.9826 43.5461C43.3551 43.5645 44.3575 43.8852 45.5574 44.5331C46.3996 44.9176 47.0961 45 47.9657 44.7123C48.2182 44.6171 48.4703 44.5208 48.722 44.4237C49.0532 44.3092 49.3849 44.1965 49.7172 44.0853C49.8724 44.0324 50.0275 43.9794 50.1874 43.9248C52.7382 43.134 55.4331 43.6491 57.7979 44.7421C58.2921 41.6202 58.581 38.4974 58.9125 35.3478C46.9323 35.3478 34.9522 35.3478 22.6089 35.3478ZM33.0582 46.006C31.5406 47.3653 29.833 47.6304 27.8734 47.5883C26.486 47.5595 25.3742 47.7816 24.2012 48.5636C24.1847 48.9608 24.1967 49.3109 24.2348 49.7037C24.244 49.8178 24.2532 49.9318 24.2627 50.0493C24.2923 50.4036 24.3258 50.7573 24.3604 51.1112C24.3797 51.3127 24.399 51.5143 24.4189 51.7219C24.4816 52.3377 24.5497 52.9527 24.6194 53.5676C24.6454 53.8007 24.6713 54.0338 24.6972 54.2669C24.7666 54.8913 24.8369 55.5156 24.9074 56.1399C24.9516 56.5312 24.9956 56.9226 25.0396 57.314C25.1933 58.6828 25.3477 60.0515 25.5027 61.4202C25.6466 62.691 25.789 63.962 25.9306 65.2331C26.0529 66.33 26.1763 67.4267 26.3006 68.5233C26.3745 69.176 26.448 69.8286 26.5203 70.4814C26.5883 71.0945 26.6577 71.7075 26.7282 72.3203C26.7536 72.544 26.7786 72.7677 26.803 72.9915C27.0486 75.5511 27.0486 75.5511 28.3411 77.7019C29.1817 78.3353 29.8879 78.6761 30.9515 78.6807C31.1298 78.6819 31.3081 78.683 31.4919 78.6842C31.6877 78.6846 31.8835 78.685 32.0852 78.6855C32.3944 78.6871 32.3944 78.6871 32.7098 78.6886C33.3938 78.692 34.0778 78.6937 34.7618 78.6952C34.9975 78.6959 35.2332 78.6965 35.4689 78.6972C36.5767 78.7002 37.6845 78.7025 38.7922 78.7038C40.0695 78.7054 41.3467 78.7096 42.624 78.716C43.6121 78.7208 44.6002 78.7232 45.5883 78.7237C46.178 78.7241 46.7677 78.7255 47.3574 78.7295C48.016 78.7339 48.6746 78.7332 49.3332 78.7321C49.5274 78.7342 49.7216 78.7362 49.9217 78.7383C51.2604 78.7301 52.1049 78.5367 53.1406 77.6422C54.4781 76.0817 54.5486 74.3855 54.768 72.4171C54.7978 72.1557 54.8277 71.8943 54.8576 71.633C54.9383 70.9261 55.0179 70.2192 55.0974 69.5122C55.1807 68.7718 55.265 68.0315 55.3492 67.2911C55.4903 66.049 55.6307 64.8067 55.7707 63.5644C55.9506 61.9691 56.1314 60.3738 56.3126 58.7786C56.4684 57.407 56.6237 56.0353 56.779 54.6636C56.8289 54.2225 56.8789 53.7815 56.9289 53.3404C57.0074 52.6484 57.0855 51.9564 57.1634 51.2643C57.1921 51.0101 57.2208 50.7558 57.2497 50.5016C57.289 50.1553 57.3279 49.809 57.3668 49.4627C57.3887 49.2687 57.4106 49.0747 57.4331 48.8748C57.4873 48.4039 57.4873 48.4039 57.4795 47.9267C56.0998 46.6201 54.191 46.2122 52.3525 46.261C51.344 46.3833 50.4571 46.76 49.5182 47.1305C47.5207 47.8006 45.7037 47.7033 43.786 46.8121C43.665 46.7307 43.5439 46.6494 43.4191 46.5656C42.9352 46.3049 42.6483 46.2757 42.103 46.2753C41.9338 46.2725 41.7647 46.2698 41.5904 46.2669C41.2401 46.2655 40.8897 46.2646 40.5393 46.2644C39.02 46.2379 37.8515 45.8229 36.4915 45.18C35.1409 44.5766 34.1023 45.0552 33.0582 46.006Z" fill="white"/>
<path d="M33.457 53.2712C35.0913 54.0001 35.9862 55.1987 36.6216 56.8438C36.7888 57.5303 36.8873 58.2107 36.7808 58.9138C36.4952 59.3612 36.3001 59.6318 35.8255 59.8691C35.2031 59.9097 34.7571 59.9062 34.2332 59.5507C33.9148 59.0731 33.8581 58.8558 33.7754 58.3067C33.6098 57.4262 33.3255 56.8269 32.621 56.2467C32.1838 56.0566 31.8241 55.9786 31.3572 55.8984C30.8603 55.8067 30.5903 55.7419 30.163 55.4605C29.8476 54.9532 29.7853 54.5735 29.7749 53.9778C29.9687 53.5187 30.1172 53.268 30.538 52.9994C31.4452 52.6478 32.5696 52.9592 33.457 53.2712Z" fill="white"/>
<path d="M42.0351 66.5564C43.6171 66.9686 44.7789 67.8131 45.6382 69.206C46.1314 70.1895 46.4012 71.1823 46.3342 72.2885C46.12 72.7883 45.9178 73.0233 45.5381 73.4031C44.799 73.4879 44.4451 73.5197 43.8164 73.1145C43.4047 72.5145 43.2863 71.9802 43.1192 71.2797C42.9069 70.5803 42.5375 70.1047 41.9001 69.7247C41.5172 69.5649 41.1716 69.5092 40.7613 69.4523C40.2053 69.3457 39.9927 69.2862 39.5472 68.9149C39.2636 68.3349 39.2257 67.9907 39.3282 67.3525C39.9562 66.2984 40.9389 66.3973 42.0351 66.5564Z" fill="white"/>
<path d="M51.2802 54.545C51.6885 55.0588 51.7479 55.3945 51.7479 56.0477C51.495 56.6168 51.3154 56.8137 50.7925 57.1623C50.5417 57.2097 50.2893 57.2487 50.0362 57.2817C49.1754 57.4415 48.6517 57.7721 48.0857 58.4361C47.8671 58.8212 47.7823 59.1509 47.7019 59.5837C47.5086 60.5894 47.5086 60.5894 47.19 60.9937C46.6334 61.2134 46.1281 61.2338 45.5381 61.143C45.0228 60.8655 44.9292 60.7494 44.7419 60.1876C44.6402 58.7385 44.9686 57.4785 45.9013 56.3469C47.2158 54.9099 49.3061 53.5379 51.2802 54.545Z" fill="white"/>
</g>
</svg>
