<svg width="21" height="22" viewBox="0 0 21 22" fill="none" xmlns="http://www.w3.org/2000/svg">
<path d="M11.3519 0.649178C12.2231 1.27947 12.9309 2.20229 13.1581 3.26959C13.1661 3.41792 13.1692 3.56657 13.1682 3.7151C13.1679 3.79737 13.1675 3.87965 13.1671 3.96441C13.1662 4.04933 13.1654 4.13425 13.1645 4.22174C13.164 4.30826 13.1636 4.39477 13.1632 4.4839C13.1619 4.69674 13.1601 4.90959 13.1581 5.12241C13.227 5.11918 13.2959 5.11595 13.3669 5.11261C15.9135 5.00866 15.9135 5.00866 16.7607 5.74003C16.8656 5.82721 16.8656 5.82721 16.9723 5.91614C17.5375 6.43445 17.9759 7.06819 18.0133 7.8522C18.0432 10.6148 18.0432 10.6148 17.3784 11.2985C17.0617 11.4954 16.8784 11.5046 16.5035 11.498C16.0597 11.3791 15.8974 11.2584 15.6284 10.8868C15.4486 10.2268 15.5828 9.63518 15.6873 8.9676C15.7427 8.53446 15.7399 8.2207 15.6284 7.79872C15.3364 7.52028 15.1249 7.45003 14.7262 7.43724C14.6346 7.4336 14.5431 7.42995 14.4489 7.42619C14.3541 7.42387 14.2594 7.42154 14.1617 7.41916C14.0654 7.41563 13.969 7.41212 13.8697 7.4085C13.6326 7.40003 13.3954 7.3929 13.1581 7.38698C13.1614 7.45913 13.1646 7.53126 13.1679 7.60559C13.1807 7.93371 13.1888 8.26177 13.1966 8.59003C13.2018 8.70356 13.207 8.81706 13.2124 8.93403C13.2272 9.75202 13.2272 9.75202 13.0323 10.0492C12.7641 10.2855 12.4888 10.4439 12.1287 10.4364C12.065 10.4378 12.0013 10.4391 11.9357 10.4405C11.569 10.3258 11.3092 10.1774 11.0994 9.85742C11.0227 9.43214 11.0413 9.02038 11.0608 8.59003C11.0799 7.99454 11.0799 7.99454 11.0994 7.38698C9.74063 7.38698 8.3819 7.38698 6.98198 7.38698C7.00634 8.17696 7.00634 8.17696 7.03762 8.96668C7.04989 9.75386 7.04989 9.75386 6.85622 10.0492C6.588 10.2855 6.31273 10.4439 5.95263 10.4364C5.85709 10.4384 5.85709 10.4384 5.75962 10.4405C5.39285 10.3258 5.13306 10.1774 4.92329 9.85742C4.84673 9.43274 4.8651 9.0198 4.88468 8.59003C4.88887 8.41678 4.88887 8.41678 4.89313 8.24002C4.90039 7.95547 4.91053 7.67132 4.92329 7.38698C4.59073 7.38934 4.25853 7.39732 3.92611 7.40629C3.83223 7.40689 3.73835 7.40749 3.64162 7.40809C3.17752 7.42328 2.93014 7.44426 2.54131 7.71508C2.31313 8.06023 2.29787 8.19555 2.34349 8.6029C2.35795 8.73321 2.37241 8.8635 2.38731 8.99776C2.47053 9.58941 2.56938 10.1786 2.67234 10.7671C2.80798 11.5495 2.92741 12.3333 3.0411 13.1192C3.05668 13.2263 3.07225 13.3334 3.0883 13.4438C3.15189 13.8816 3.21543 14.3193 3.27734 14.7574C3.32143 15.0691 3.36655 15.3806 3.41183 15.6921C3.4247 15.7854 3.43755 15.8785 3.45081 15.9746C3.59191 17.0131 3.59191 17.0131 4.09337 17.9025C4.16344 17.9481 4.23349 17.9938 4.30567 18.0407C4.37574 18.0885 4.4458 18.1363 4.51798 18.1855C4.84743 18.3714 5.11689 18.4142 5.48776 18.4173C5.58088 18.4184 5.67399 18.4194 5.76993 18.4205C5.87029 18.4212 5.97066 18.422 6.07406 18.4228C6.2865 18.4257 6.49893 18.4286 6.71137 18.4316C7.04636 18.4358 7.38134 18.4397 7.71635 18.4423C8.03961 18.4452 8.36281 18.4499 8.68604 18.455C8.83596 18.4554 8.83596 18.4554 8.98891 18.4559C9.50302 18.4652 9.85688 18.4811 10.2759 18.8128C10.3353 18.8552 10.3948 18.8976 10.456 18.9415C10.6653 19.2343 10.6756 19.487 10.6876 19.8421C10.5569 20.2668 10.459 20.4162 10.0665 20.6295C9.60891 20.812 9.17282 20.8112 8.68563 20.8058C8.59362 20.806 8.50162 20.806 8.40681 20.806C8.21277 20.8058 8.01873 20.8049 7.82469 20.8031C7.53149 20.8006 7.23839 20.801 6.94519 20.8016C5.16421 20.799 3.8198 20.7235 2.47979 19.4594C1.49504 18.466 1.27672 17.2091 1.08856 15.8585C1.05913 15.658 1.02971 15.4575 1.00026 15.257C0.959765 14.9789 0.92031 14.7009 0.880839 14.4228C0.792894 13.8054 0.702398 13.1883 0.612486 12.5711C0.58413 12.3752 0.58413 12.3752 0.555205 12.1754C0.433834 11.3427 0.299934 10.5139 0.145007 9.68684C-0.0457035 8.58696 -0.139596 7.68111 0.458485 6.71147C0.960838 6.00428 1.61698 5.39725 2.45285 5.12241C2.88349 5.07516 3.307 5.08323 3.73954 5.09669C3.9107 5.09947 3.9107 5.09947 4.08532 5.10231C4.36474 5.10714 4.64396 5.11388 4.92329 5.12241C4.91969 4.99942 4.91612 4.87642 4.91243 4.74969C4.88121 3.26544 5.05416 2.37013 6.05557 1.21089C7.4454 -0.163696 9.69666 -0.391927 11.3519 0.649178ZM7.43875 2.95073C6.9493 3.67517 6.98198 4.23643 6.98198 5.12241C8.34073 5.12241 9.69947 5.12241 11.0994 5.12241C11.0994 4.17702 11.098 3.48462 10.4818 2.75492C10.0411 2.35151 9.63717 2.20302 9.04068 2.17591C8.34428 2.20928 7.88304 2.40982 7.43875 2.95073Z" fill="white"/>
<path d="M16.6564 13.4602C16.9456 13.6448 17.1205 13.7709 17.2739 14.0777C17.2826 14.2644 17.2849 14.4515 17.2839 14.6383C17.2836 14.7492 17.2833 14.8598 17.283 14.9741C17.2817 15.1483 17.2817 15.1483 17.2804 15.3259C17.2799 15.4427 17.2794 15.5597 17.2789 15.6801C17.2778 15.9695 17.276 16.2588 17.2739 16.5482C17.3821 16.5449 17.3821 16.5449 17.4926 16.5417C17.8207 16.5331 18.1488 16.5277 18.477 16.5225C18.5904 16.5189 18.704 16.5155 18.821 16.512C19.6657 16.5019 19.6657 16.5019 20.0744 16.7429C20.3651 17.0846 20.3961 17.329 20.3921 17.7795C20.3453 18.1058 20.1815 18.2795 19.9502 18.504C19.6816 18.6383 19.4842 18.6186 19.1839 18.617C19.0731 18.6167 18.9622 18.6163 18.8482 18.616C18.732 18.615 18.6159 18.6142 18.4962 18.6134C18.3208 18.6126 18.3208 18.6126 18.1421 18.6119C17.8527 18.6106 17.5633 18.609 17.2739 18.6069C17.2761 18.6791 17.2782 18.7512 17.2804 18.8255C17.289 19.1537 17.2943 19.4818 17.2997 19.8099C17.3047 19.9802 17.3047 19.9802 17.3101 20.1539C17.3203 20.9986 17.3203 20.9986 17.0793 21.4074C16.7374 21.698 16.4932 21.7292 16.0428 21.7251C15.7163 21.6782 15.5426 21.5145 15.3182 21.2833C15.1838 21.0147 15.2036 20.8172 15.2052 20.5168C15.2056 20.4061 15.2059 20.2953 15.2062 20.181C15.207 20.065 15.2078 19.9488 15.2088 19.8292C15.2093 19.7124 15.2096 19.5954 15.2101 19.475C15.2114 19.1856 15.213 18.8963 15.2151 18.6069C15.143 18.609 15.0708 18.6113 14.9966 18.6134C14.6685 18.622 14.3404 18.6274 14.0122 18.6326C13.8986 18.6362 13.7851 18.6396 13.6681 18.6431C12.8235 18.6534 12.8235 18.6534 12.4147 18.4122C12.1241 18.0705 12.0929 17.8261 12.097 17.3756C12.1439 17.0493 12.3076 16.8756 12.5389 16.6512C12.8075 16.5168 13.0048 16.5365 13.3053 16.5381C13.4161 16.5384 13.5269 16.5388 13.641 16.5391C13.7572 16.5401 13.8732 16.5409 13.9928 16.5417C14.1098 16.5422 14.2267 16.5427 14.3471 16.5432C14.6365 16.5445 14.9259 16.5461 15.2151 16.5482C15.213 16.476 15.2109 16.4039 15.2086 16.3296C15.2 16.0015 15.1947 15.6733 15.1895 15.3452C15.1861 15.2316 15.1826 15.1182 15.1791 15.0012C15.1688 14.1565 15.1688 14.1565 15.4098 13.7476C15.7954 13.4199 16.163 13.3893 16.6564 13.4602Z" fill="white"/>
</svg>
