<svg  viewBox="0 0 67 63" fill="none" xmlns="http://www.w3.org/2000/svg">
<path d="M17.6463 20.7415H49.2499C50.0536 20.7414 50.8479 20.903 51.5782 21.2151C52.3085 21.5273 52.9576 21.9827 53.481 22.5501C54.0043 23.1175 54.3896 23.7835 54.6104 24.5024C54.8312 25.2213 54.8823 25.9761 54.7601 26.7151L51.2622 47.8508C50.9586 49.6876 49.958 51.3625 48.4416 52.5724C46.9252 53.7823 44.9933 54.4472 42.9955 54.4466H23.8979C21.9006 54.4466 19.9693 53.7814 18.4535 52.5716C16.9377 51.3618 15.9375 49.6871 15.6339 47.8508L12.1361 26.7151C12.0139 25.9761 12.065 25.2213 12.2857 24.5024C12.5065 23.7835 12.8918 23.1175 13.4152 22.5501C13.9386 21.9827 14.5877 21.5273 15.318 21.2151C16.0483 20.903 16.8425 20.7414 17.6463 20.7415Z" stroke="white" stroke-width="2.53378" stroke-linecap="round" stroke-linejoin="round"/>
<path d="M25.0864 28.5197V15.5561C25.0864 13.4933 25.9674 11.5149 27.5354 10.0562C29.1035 8.59749 31.2303 7.77802 33.4479 7.77802C35.6655 7.77802 37.7923 8.59749 39.3604 10.0562C40.9285 11.5149 41.8094 13.4933 41.8094 15.5561V28.5197" stroke="white" stroke-width="2.53378" stroke-linecap="round" stroke-linejoin="round"/>
</svg>
