<svg width="15" height="16" viewBox="0 0 15 16" fill="none" xmlns="http://www.w3.org/2000/svg">
<path d="M8.52331 0.807614C9.14252 1.25562 9.64566 1.91154 9.80712 2.67016C9.8128 2.77559 9.81502 2.88125 9.81426 2.98683C9.81403 3.0453 9.81379 3.10377 9.81355 3.16402C9.81294 3.22438 9.81232 3.28474 9.81169 3.34693C9.81136 3.40842 9.81103 3.46992 9.81069 3.53327C9.80983 3.68456 9.80852 3.83584 9.80712 3.98712C9.8561 3.98482 9.90508 3.98252 9.95554 3.98015C11.7656 3.90626 11.7656 3.90626 12.3679 4.42611C12.4423 4.48807 12.4423 4.48807 12.5182 4.55128C12.9199 4.91969 13.2315 5.37014 13.2581 5.9274C13.2793 7.89099 13.2793 7.89099 12.8069 8.37698C12.5817 8.51694 12.4514 8.52349 12.185 8.51873C11.8696 8.43426 11.7541 8.34846 11.5631 8.08432C11.4351 7.61526 11.5305 7.19471 11.6048 6.72021C11.6442 6.41233 11.6423 6.18932 11.5631 5.88939C11.3555 5.69148 11.2051 5.64154 10.9217 5.63246C10.8567 5.62987 10.7916 5.62727 10.7245 5.6246C10.6572 5.62295 10.5899 5.6213 10.5205 5.6196C10.452 5.6171 10.3835 5.6146 10.313 5.61202C10.1444 5.606 9.97579 5.60094 9.80712 5.59673C9.80942 5.64801 9.81172 5.69929 9.81409 5.75212C9.82323 5.98534 9.82893 6.21851 9.83456 6.45184C9.83823 6.53253 9.84191 6.61321 9.8457 6.69634C9.85624 7.27776 9.85624 7.27776 9.71774 7.489C9.52709 7.65697 9.33143 7.76956 9.07548 7.76423C9.03021 7.76517 8.98493 7.76611 8.93829 7.76709C8.67759 7.68562 8.49294 7.58009 8.34383 7.35268C8.28935 7.0504 8.30256 6.75772 8.3164 6.45184C8.32998 6.02856 8.32998 6.02856 8.34383 5.59673C7.37806 5.59673 6.41229 5.59673 5.41726 5.59673C5.43458 6.15824 5.43458 6.15824 5.45681 6.71955C5.46552 7.27907 5.46552 7.27907 5.32788 7.489C5.13723 7.65697 4.94157 7.76956 4.68562 7.76423C4.61771 7.76564 4.61771 7.76564 4.54843 7.76709C4.28773 7.68562 4.10308 7.58009 3.95397 7.35268C3.89956 7.05082 3.91261 6.7573 3.92654 6.45184C3.92951 6.32869 3.92951 6.32869 3.93254 6.20305C3.9377 6.0008 3.94491 5.79884 3.95397 5.59673C3.7176 5.59841 3.48148 5.60407 3.24519 5.61045C3.17847 5.61088 3.11174 5.6113 3.04299 5.61174C2.71311 5.62253 2.53728 5.63744 2.2609 5.82995C2.09872 6.07526 2.08788 6.17145 2.12029 6.46099C2.13057 6.5536 2.14085 6.64622 2.15144 6.74164C2.2106 7.16218 2.28086 7.58096 2.35404 7.99926C2.45044 8.55538 2.53534 9.1125 2.61615 9.67107C2.62722 9.74721 2.63829 9.82335 2.6497 9.90179C2.6949 10.213 2.74006 10.5241 2.78406 10.8355C2.8154 11.057 2.84747 11.2785 2.87966 11.4999C2.8888 11.5661 2.89794 11.6324 2.90736 11.7007C3.00765 12.4388 3.00765 12.4388 3.36409 13.0709C3.41388 13.1034 3.46368 13.1358 3.51499 13.1692C3.56478 13.2032 3.61458 13.2371 3.66589 13.2721C3.90006 13.4043 4.09159 13.4347 4.3552 13.4369C4.42138 13.4376 4.48757 13.4384 4.55575 13.4391C4.62709 13.4397 4.69843 13.4402 4.77193 13.4408C4.92292 13.4428 5.07392 13.4449 5.22492 13.447C5.46302 13.4501 5.70112 13.4528 5.93923 13.4547C6.169 13.4567 6.39872 13.4601 6.62847 13.4636C6.73503 13.464 6.73503 13.464 6.84375 13.4643C7.20917 13.471 7.46069 13.4823 7.75852 13.718C7.80077 13.7482 7.84302 13.7783 7.88656 13.8094C8.03527 14.0176 8.04262 14.1972 8.05118 14.4496C7.95828 14.7515 7.88864 14.8576 7.60967 15.0093C7.28443 15.139 6.97447 15.1385 6.62819 15.1347C6.56279 15.1347 6.49739 15.1347 6.43001 15.1348C6.29208 15.1346 6.15416 15.1339 6.01624 15.1327C5.80784 15.131 5.59951 15.1312 5.39111 15.1317C4.12522 15.1297 3.16963 15.076 2.21718 14.1775C1.51724 13.4716 1.36206 12.5781 1.22832 11.6182C1.2074 11.4756 1.18648 11.3331 1.16555 11.1905C1.13677 10.993 1.10873 10.7954 1.08067 10.5978C1.01816 10.1589 0.953836 9.72022 0.889931 9.28153C0.86978 9.14228 0.86978 9.14228 0.849223 9.00023C0.762947 8.40835 0.667777 7.81931 0.557655 7.23143C0.422106 6.44966 0.355368 5.80579 0.78047 5.11659C1.13753 4.61393 1.6039 4.18246 2.19803 3.98712C2.50413 3.95352 2.80514 3.95927 3.11258 3.96883C3.23425 3.97081 3.23425 3.97081 3.35837 3.97283C3.55697 3.97625 3.75544 3.98105 3.95397 3.98712C3.95143 3.89969 3.94888 3.81226 3.94626 3.72218C3.92407 2.66721 4.047 2.03085 4.75878 1.20687C5.74664 0.229846 7.34681 0.0676126 8.52331 0.807614ZM5.74193 2.44352C5.39403 2.95845 5.41726 3.35738 5.41726 3.98712C6.38303 3.98712 7.3488 3.98712 8.34383 3.98712C8.34383 3.31515 8.34283 2.823 7.90485 2.30434C7.59163 2.0176 7.30452 1.91206 6.88055 1.89279C6.38556 1.91651 6.05772 2.05904 5.74193 2.44352Z" fill="#F24949"/>
<path d="M12.2931 9.91269C12.4987 10.0439 12.6231 10.1336 12.7321 10.3517C12.7383 10.4843 12.74 10.6173 12.7393 10.7501C12.739 10.8288 12.7388 10.9076 12.7386 10.9887C12.7376 11.1125 12.7376 11.1125 12.7367 11.2388C12.7364 11.3219 12.736 11.405 12.7357 11.4906C12.7348 11.6963 12.7336 11.9019 12.7321 12.1076C12.809 12.1053 12.809 12.1053 12.8875 12.103C13.1207 12.0969 13.354 12.0931 13.5872 12.0893C13.6679 12.0869 13.7486 12.0844 13.8317 12.0819C14.4321 12.0746 14.4321 12.0746 14.7227 12.2459C14.9293 12.4889 14.9514 12.6626 14.9485 12.9827C14.9152 13.2147 14.7988 13.3382 14.6344 13.4977C14.4435 13.5932 14.3032 13.5792 14.0897 13.578C14.0109 13.5778 13.9322 13.5776 13.851 13.5773C13.7685 13.5767 13.686 13.5761 13.601 13.5755C13.4763 13.575 13.4763 13.575 13.3492 13.5745C13.1435 13.5736 12.9378 13.5724 12.7321 13.5709C12.7337 13.6222 12.7352 13.6735 12.7368 13.7263C12.7429 13.9595 12.7467 14.1927 12.7504 14.426C12.7541 14.547 12.7541 14.547 12.7578 14.6705C12.7651 15.2709 12.7651 15.2709 12.5938 15.5615C12.3508 15.768 12.1772 15.7902 11.857 15.7873C11.6251 15.7539 11.5016 15.6376 11.342 15.4732C11.2465 15.2823 11.2606 15.142 11.2617 14.9284C11.2619 14.8497 11.2622 14.7709 11.2624 14.6898C11.263 14.6073 11.2636 14.5248 11.2643 14.4397C11.2646 14.3566 11.2649 14.2736 11.2653 14.1879C11.2661 13.9823 11.2673 13.7766 11.2688 13.5709C11.2176 13.5724 11.1663 13.574 11.1135 13.5755C10.8802 13.5816 10.647 13.5854 10.4137 13.5892C10.333 13.5916 10.2524 13.5941 10.1692 13.5966C9.56883 13.6039 9.56883 13.6039 9.27826 13.4326C9.07171 13.1896 9.04956 13.0159 9.05247 12.6958C9.0858 12.4638 9.20218 12.3403 9.36657 12.1808C9.55749 12.0853 9.69778 12.0993 9.9113 12.1005C9.99005 12.1007 10.0688 12.1009 10.1499 12.1012C10.2325 12.1018 10.315 12.1024 10.4 12.103C10.4831 12.1034 10.5662 12.1037 10.6518 12.104C10.8575 12.1049 11.0632 12.1061 11.2688 12.1076C11.2673 12.0563 11.2658 12.0051 11.2642 11.9522C11.2581 11.719 11.2543 11.4858 11.2505 11.2525C11.2481 11.1718 11.2456 11.0911 11.2431 11.008C11.2359 10.4076 11.2359 10.4076 11.4072 10.117C11.6813 9.88404 11.9425 9.86231 12.2931 9.91269Z" fill="#F24949"/>
</svg>
