<svg width="74" height="74" viewBox="0 0 74 74" fill="none" xmlns="http://www.w3.org/2000/svg">
<mask id="mask0_2397_3" style="mask-type:luminance" maskUnits="userSpaceOnUse" x="0" y="0" width="74" height="74">
<path d="M73.443 0H0V73.443H73.443V0Z" fill="white"/>
</mask>
<g mask="url(#mask0_2397_3)">
<path d="M17.0231 -0.0375032C17.1652 -0.0385172 17.3073 -0.0395302 17.4538 -0.0405742C17.6111 -0.0402282 17.7683 -0.0398812 17.9304 -0.0395242C18.1797 -0.0406512 18.1797 -0.0406512 18.434 -0.0418012C18.8967 -0.0435862 19.3594 -0.0440732 19.8222 -0.0440102C20.3207 -0.0442462 20.8192 -0.0461192 21.3177 -0.0477672C22.4083 -0.0510492 23.4989 -0.0521822 24.5895 -0.0529062C25.2702 -0.0533732 25.9508 -0.0543082 26.6314 -0.0553452C28.5149 -0.0581522 30.3983 -0.0605052 32.2817 -0.0609222C32.4626 -0.0609622 32.4626 -0.0609622 32.6471 -0.0610032C32.8916 -0.0610562 33.1361 -0.0611082 33.3806 -0.0611602C33.502 -0.0611862 33.6234 -0.0612122 33.7484 -0.0612392C33.8699 -0.0612652 33.9915 -0.0612912 34.1167 -0.0613182C36.0864 -0.0618262 38.0562 -0.0657032 40.026 -0.0710652C42.047 -0.0765222 44.0679 -0.0793052 46.0889 -0.0793482C47.2242 -0.0794322 48.3594 -0.0806582 49.4947 -0.0847992C50.4613 -0.0883082 51.4278 -0.0893652 52.3943 -0.0872022C52.8877 -0.0861712 53.3811 -0.0863092 53.8744 -0.0895562C54.4088 -0.0924652 54.943 -0.0909922 55.4774 -0.0883782C55.6341 -0.0902712 55.7907 -0.0921652 55.9521 -0.0941162C57.0004 -0.0823402 57.0003 -0.0823402 57.4598 0.333635C57.5275 0.460151 57.5951 0.586667 57.6649 0.717017C57.7652 0.876927 57.8655 1.03684 57.9688 1.2016C58.077 1.38434 58.1847 1.56744 58.2919 1.75082C58.3788 1.89804 58.3788 1.89804 58.4676 2.04824C58.6518 2.36026 58.8352 2.67272 59.0186 2.98522C59.1412 3.19341 59.2638 3.40157 59.3865 3.6097C59.4459 3.71074 59.5054 3.81178 59.5667 3.91588C59.6841 4.11458 59.8021 4.31299 59.9205 4.51109C60.1556 4.90468 60.3841 5.29522 60.5929 5.70364C60.8743 6.24384 60.8743 6.24384 61.3784 6.5492C61.7008 6.59002 62.0021 6.5926 62.3268 6.58026C63.7331 6.57055 63.7331 6.57055 64.2632 6.88508C64.547 7.33144 64.5875 7.68712 64.5918 8.2105C64.5936 8.36035 64.5955 8.5102 64.5974 8.66459C64.5978 8.90621 64.5978 8.90621 64.5983 9.15272C64.5993 9.31895 64.6002 9.48518 64.6012 9.65649C64.6027 10.0079 64.6033 10.3594 64.6033 10.7109C64.6039 11.2486 64.6091 11.7862 64.6146 12.3239C64.6154 12.6654 64.616 13.0069 64.6162 13.3484C64.6183 13.5092 64.6204 13.67 64.6225 13.8357C64.6188 14.472 64.6051 14.9417 64.3376 15.5242C63.8051 15.8992 63.3554 15.8576 62.7212 15.8234C62.6075 15.8202 62.4938 15.8169 62.3766 15.8136C62.0969 15.8052 61.8173 15.7923 61.5378 15.7786C61.5194 15.9428 61.5194 15.9428 61.5007 16.1104C61.3848 17.1445 61.2688 18.1786 61.1525 19.2127C61.0927 19.7442 61.033 20.2758 60.9735 20.8074C60.9161 21.3208 60.8584 21.8342 60.8005 22.3476C60.7786 22.5431 60.7567 22.7386 60.7348 22.934C60.7042 23.2087 60.6732 23.4833 60.6422 23.758C60.6247 23.914 60.6071 24.0701 60.5891 24.2309C60.5343 24.6673 60.4657 25.0994 60.3903 25.5327C60.5079 25.5261 60.6255 25.5194 60.7466 25.5125C60.9012 25.5074 61.0558 25.5022 61.2151 25.4969C61.3682 25.4902 61.5213 25.4835 61.679 25.4767C62.2212 25.5469 62.3506 25.6826 62.6854 26.1065C62.9446 27.5527 62.5704 29.2336 62.4002 30.6866C62.3695 30.9556 62.3389 31.2247 62.3084 31.4937C62.2257 32.2189 62.1418 32.944 62.0576 33.6691C61.9694 34.4297 61.8822 35.1904 61.7949 35.951C61.6483 37.2268 61.5008 38.5025 61.3528 39.7781C61.1818 41.2525 61.0122 42.7271 60.8434 44.2018C60.6808 45.6228 60.517 47.0436 60.3527 48.4643C60.2828 49.0682 60.2134 49.6722 60.1444 50.2762C60.0631 50.9865 59.9809 51.6966 59.8978 52.4068C59.8675 52.6673 59.8376 52.928 59.808 53.1886C59.7676 53.5442 59.7259 53.8997 59.6839 54.2551C59.6668 54.41 59.6668 54.41 59.6492 54.568C59.5696 55.2274 59.4392 55.7852 59.0741 56.3444C58.4586 56.749 57.5159 56.5361 56.8042 56.5165C56.7873 56.6994 56.7704 56.8823 56.7529 57.0707C56.5835 58.8851 56.395 60.6967 56.1906 62.5075C56.1756 62.6408 56.1606 62.7741 56.1451 62.9114C56.0659 63.6133 55.9863 64.3151 55.9064 65.017C55.841 65.5927 55.7764 66.1686 55.7124 66.7446C55.6343 67.4485 55.5548 68.1523 55.4743 68.856C55.4441 69.1215 55.4144 69.3871 55.3853 69.6528C55.3444 70.0233 55.3018 70.3937 55.2588 70.764C55.2417 70.925 55.2417 70.925 55.2243 71.0892C55.1332 71.8509 54.9742 72.5986 54.6525 73.2993C54.2365 73.5073 53.8742 73.4623 53.4093 73.4639C53.3098 73.4644 53.2104 73.4649 53.108 73.4655C52.7732 73.4671 52.4385 73.4676 52.1037 73.4682C51.8643 73.4691 51.625 73.47 51.3856 73.471C50.7342 73.4735 50.0828 73.475 49.4314 73.4762C49.0246 73.477 48.6179 73.4778 48.2112 73.4787C46.9395 73.4815 45.6678 73.4835 44.3962 73.4847C42.9267 73.4861 41.4572 73.4899 39.9877 73.4957C38.8528 73.5 37.718 73.5021 36.5831 73.5026C35.9048 73.5029 35.2265 73.5042 34.5483 73.5078C33.9104 73.5112 33.2725 73.5118 32.6346 73.5103C32.4003 73.5102 32.166 73.5111 31.9317 73.5131C31.6121 73.5156 31.2927 73.5146 30.9731 73.5127C30.7047 73.5133 30.7047 73.5133 30.4309 73.5138C29.8944 73.4292 29.7239 73.3034 29.4065 72.869C29.3348 72.3669 29.3348 72.3669 29.4065 71.8649C29.7248 71.4479 29.9114 71.3141 30.4106 71.1477C30.7108 71.1345 31.0114 71.1302 31.3119 71.1304C31.5952 71.1301 31.5952 71.1301 31.8843 71.1298C32.094 71.1303 32.3038 71.1309 32.5136 71.1314C32.7342 71.1314 32.9547 71.1314 33.1752 71.1313C33.7744 71.1313 34.3736 71.1321 34.9729 71.1331C35.5989 71.134 36.2249 71.1341 36.8509 71.1343C38.0366 71.1347 39.2223 71.1359 40.408 71.1374C41.7578 71.139 43.1076 71.1397 44.4573 71.1405C47.2341 71.142 50.011 71.1445 52.7878 71.1477C52.7964 71.0288 52.8051 70.9098 52.814 70.7873C52.8852 69.8326 52.9669 68.8812 53.0769 67.9302C53.0907 67.8087 53.1045 67.6871 53.1187 67.5619C53.1634 67.1682 53.2087 66.7746 53.254 66.381C53.2856 66.1046 53.3172 65.8281 53.3488 65.5517C53.4146 64.9765 53.4807 64.4013 53.547 63.8262C53.632 63.0881 53.7162 62.3499 53.8002 61.6117C53.8651 61.0428 53.9304 60.4739 53.9959 59.9051C54.0272 59.6327 54.0583 59.3603 54.0892 59.0879C54.1323 58.7091 54.176 58.3305 54.22 57.9519C54.2326 57.8392 54.2453 57.7265 54.2584 57.6103C54.3493 56.8361 54.3493 56.8361 54.5091 56.5165C42.7697 56.5165 31.0303 56.5165 18.9352 56.5165C18.9825 56.6111 19.0298 56.7058 19.0786 56.8034C19.1384 57.2273 19.1914 57.6501 19.2397 58.0755C19.2551 58.2073 19.2706 58.3391 19.2864 58.4749C19.3374 58.9122 19.3876 59.3496 19.4378 59.7871C19.4729 60.0905 19.5081 60.3939 19.5433 60.6973C19.6171 61.3341 19.6905 61.9709 19.7636 62.6077C19.8573 63.4239 19.9519 64.2401 20.0467 65.0562C20.1195 65.6831 20.1919 66.3101 20.2642 66.9371C20.2989 67.238 20.3337 67.5389 20.3687 67.8397C20.4175 68.2607 20.4658 68.6817 20.5139 69.1027C20.5284 69.2271 20.543 69.3515 20.5579 69.4796C20.6214 70.0388 20.6747 70.5838 20.6565 71.1477C20.8222 71.1462 20.9879 71.1447 21.1586 71.1431C21.7748 71.1379 22.391 71.1346 23.0072 71.1319C23.2737 71.1305 23.5401 71.1285 23.8065 71.126C24.19 71.1225 24.5735 71.1209 24.957 71.1197C25.135 71.1174 25.135 71.1174 25.3166 71.1152C25.9294 71.1151 26.4154 71.1362 26.968 71.4346C27.3159 71.7824 27.3532 71.9539 27.3983 72.4387C27.2457 72.9856 27.1652 73.12 26.6811 73.4428C26.3436 73.4802 26.3436 73.4802 25.9412 73.4822C25.7904 73.4835 25.6396 73.4849 25.4843 73.4863C25.3215 73.4862 25.1588 73.4861 24.9912 73.4859C24.824 73.4865 24.6569 73.4872 24.4847 73.4878C24.1312 73.4886 23.7777 73.4887 23.4241 73.4881C22.882 73.4876 22.34 73.491 21.7979 73.4946C21.4548 73.4949 21.1117 73.495 20.7685 73.4949C20.5245 73.4969 20.5245 73.4969 20.2754 73.4989C20.0493 73.4975 20.0493 73.4975 19.8185 73.4962C19.6193 73.4963 19.6193 73.4963 19.4161 73.4965C19.0786 73.4428 19.0786 73.4428 18.8351 73.287C18.299 72.4991 18.2736 71.4549 18.1708 70.534C18.154 70.3893 18.1371 70.2446 18.1198 70.0954C18.0647 69.6194 18.0107 69.1433 17.9568 68.6671C17.9187 68.3355 17.8805 68.0038 17.8423 67.6721C17.7624 66.9783 17.6832 66.2844 17.6043 65.5904C17.5032 64.7004 17.401 63.8105 17.2985 62.9206C17.2197 62.2363 17.1413 61.552 17.063 60.8677C17.0254 60.5394 16.9878 60.2112 16.9501 59.883C16.8976 59.425 16.8455 58.9669 16.7935 58.5089C16.7779 58.373 16.7622 58.2372 16.7461 58.0972C16.7321 57.9723 16.718 57.8475 16.7035 57.7188C16.6912 57.6107 16.6788 57.5025 16.6662 57.391C16.641 57.1005 16.6401 56.8081 16.6401 56.5165C16.5018 56.5231 16.3635 56.5298 16.2209 56.5366C16.0397 56.5418 15.8585 56.547 15.6718 56.5523C15.4921 56.559 15.3124 56.5656 15.1272 56.5725C14.6319 56.5165 14.6319 56.5165 14.3271 56.3002C13.9607 55.8133 13.9151 55.3452 13.8489 54.7562C13.8324 54.627 13.816 54.4978 13.799 54.3647C13.7391 53.8869 13.6835 53.4087 13.6278 52.9304C13.6043 52.7344 13.5806 52.5385 13.5569 52.3425C13.3677 50.7778 13.1854 49.2122 13.0048 47.6464C12.9578 47.2386 12.9106 46.8308 12.8635 46.423C12.6984 44.996 12.5338 43.569 12.3696 42.1419C12.2172 40.8178 12.0637 39.4938 11.9098 38.1698C11.7768 37.0263 11.6447 35.8827 11.5132 34.739C11.435 34.0588 11.3564 33.3787 11.277 32.6987C11.2025 32.0601 11.129 31.4215 11.0563 30.7828C11.0296 30.5499 11.0025 30.317 10.9751 30.0842C10.5396 26.3851 10.5396 26.3851 11.022 25.7722C11.4405 25.4496 11.7077 25.4742 12.2292 25.4969C12.3838 25.502 12.5384 25.5072 12.6976 25.5125C12.8152 25.5192 12.9328 25.5259 13.054 25.5327C13.0438 25.4507 13.0337 25.3687 13.0232 25.2842C12.9159 24.416 12.8089 23.5477 12.702 22.6794C12.6623 22.3571 12.6226 22.0349 12.5827 21.7126C12.3382 19.7363 12.106 17.7599 11.9064 15.7786C11.7249 15.7855 11.5434 15.7923 11.3563 15.7994C11.194 15.8054 11.194 15.8054 11.0284 15.8115C10.8032 15.8203 10.5781 15.8312 10.3531 15.8432C10.2555 15.845 10.1579 15.8468 10.0574 15.8486C9.90862 15.8543 9.90862 15.8543 9.75692 15.86C9.46792 15.7786 9.46792 15.7786 9.14833 15.5226C8.75855 14.8153 8.81785 14.1432 8.82804 13.3484C8.82817 13.1821 8.8283 13.0157 8.82843 12.8443C8.8293 12.4931 8.83156 12.1418 8.83511 11.7906C8.84035 11.2526 8.84099 10.7148 8.84092 10.1767C8.84233 9.83539 8.84401 9.49405 8.84597 9.15272C8.84629 8.99164 8.8466 8.83055 8.84693 8.66459C8.84876 8.51474 8.85059 8.36489 8.85248 8.2105C8.85357 8.07888 8.85467 7.94726 8.85579 7.81165C8.89672 7.43529 8.97872 7.20337 9.18104 6.88508C9.72232 6.55296 10.1081 6.62166 10.719 6.70469C11.3155 6.75874 11.7983 6.73496 12.3368 6.45475C13.1733 5.56831 13.6936 4.41589 14.2431 3.33934C14.5954 2.66342 14.9911 2.01815 15.3939 1.37148C15.4585 1.2648 15.5231 1.15812 15.5897 1.04821C16.2483 -0.0357451 16.2483 -0.0357452 17.0231 -0.0375032ZM16.7835 3.58589C16.6991 3.72041 16.6147 3.85493 16.5278 3.99352C16.4602 4.10604 16.3926 4.21856 16.3229 4.33448C16.248 4.45911 16.1732 4.58374 16.096 4.71214C16.0211 4.83751 15.9462 4.96287 15.8691 5.09204C15.7517 5.28675 15.7517 5.28675 15.632 5.48539C15.5583 5.60854 15.4845 5.73169 15.4085 5.85857C15.3418 5.96979 15.2752 6.08101 15.2065 6.1956C15.0506 6.4262 15.0506 6.4262 15.0622 6.5982C15.2018 6.60179 15.3415 6.60538 15.4853 6.60909C16.0053 6.62263 16.5253 6.637 17.0452 6.6516C17.2699 6.6578 17.4946 6.66378 17.7193 6.66953C18.043 6.67786 18.3666 6.68698 18.6903 6.69625C18.7901 6.69865 18.89 6.70105 18.9928 6.70352C19.5145 6.71927 20.005 6.76419 20.513 6.88508C20.683 7.39481 20.6947 7.78449 20.6565 8.31952C20.494 8.56218 20.494 8.56218 20.2262 8.74984C19.8313 8.80704 19.8313 8.80704 19.3477 8.81187C19.1668 8.8147 18.986 8.81754 18.7996 8.82047C18.6022 8.82144 18.4047 8.82237 18.2073 8.82325C18.0053 8.82566 17.8033 8.82827 17.6013 8.83105C17.07 8.83787 16.5387 8.84214 16.0074 8.84589C15.4651 8.85016 14.9228 8.85681 14.3806 8.86331C13.3168 8.87588 12.2531 8.88448 11.1892 8.89329C11.1892 10.4081 11.1892 11.9228 11.1892 13.4835C28.0409 13.4835 44.8927 13.4835 62.255 13.4835C62.255 11.9687 62.255 10.454 62.255 8.89329C61.769 8.89308 61.2829 8.89288 60.7822 8.89267C56.3282 8.89046 51.8743 8.88472 47.4204 8.87509C46.837 8.87383 46.2537 8.87261 45.6703 8.8714C45.5541 8.87116 45.438 8.87092 45.3183 8.87067C43.4361 8.86684 41.5539 8.86554 39.6716 8.86517C37.7413 8.86473 35.8109 8.86159 33.8805 8.85592C32.6887 8.8525 31.497 8.85122 30.3052 8.85262C29.4887 8.85338 28.6722 8.85152 27.8557 8.84758C27.3841 8.84538 26.9126 8.84475 26.441 8.84644C25.9304 8.84809 25.42 8.84539 24.9094 8.84154C24.7594 8.84307 24.6094 8.8446 24.4549 8.84618C24.0831 8.84092 23.7447 8.83111 23.3819 8.74984C23.0696 8.41408 23.0696 8.41408 22.9516 8.03263C22.9828 7.50185 23.0025 7.2645 23.3819 6.88508C23.7804 6.75303 24.146 6.72328 24.5639 6.72175C24.685 6.72096 24.8061 6.72018 24.9308 6.71937C25.0631 6.71923 25.1953 6.71909 25.3316 6.71894C25.4727 6.71824 25.6138 6.71753 25.7591 6.7168C26.2331 6.71459 26.7071 6.71339 27.1811 6.71219C27.5203 6.71081 27.8596 6.70938 28.1988 6.70788C29.1211 6.704 30.0433 6.70099 30.9655 6.69813C31.8313 6.69538 32.6971 6.69185 33.5629 6.68839C35.2778 6.68155 36.9926 6.67534 38.7075 6.66953C40.3734 6.66389 42.0392 6.65794 43.705 6.6516C43.8077 6.65121 43.9104 6.65082 44.0162 6.65042C44.5313 6.64846 45.0464 6.64649 45.5616 6.64452C49.8351 6.62817 54.1086 6.61286 58.3821 6.5982C58.2476 6.34999 58.113 6.10191 57.9782 5.85387C57.9033 5.71571 57.8283 5.57754 57.7511 5.43519C57.4138 4.82595 57.0531 4.2323 56.6876 3.63968C56.6175 3.52485 56.5473 3.41002 56.475 3.29172C56.1749 2.76504 56.1749 2.76504 55.8001 2.2949C55.5968 2.27989 55.3928 2.27478 55.1889 2.27364C55.0563 2.27256 54.9236 2.27148 54.7869 2.27036C54.6395 2.2699 54.492 2.26944 54.3401 2.26896C54.1071 2.26741 54.1071 2.26741 53.8694 2.26583C53.3446 2.26255 52.8197 2.26033 52.2949 2.25813C51.9203 2.25605 51.5458 2.25394 51.1712 2.25178C47.7503 2.23279 44.3292 2.22361 40.9082 2.21623C40.4503 2.21522 39.9924 2.2142 39.5346 2.21316C39.4208 2.2129 39.307 2.21264 39.1897 2.21238C37.3463 2.20807 35.5028 2.19878 33.6594 2.18753C31.7678 2.17608 29.8762 2.16951 27.9845 2.1676C26.922 2.16639 25.8596 2.16297 24.7971 2.15402C23.7976 2.14559 22.7983 2.14369 21.7987 2.14625C21.4315 2.14613 21.0643 2.14378 20.6972 2.13907C20.1963 2.13298 19.6961 2.13483 19.1953 2.13868C19.0494 2.13502 18.9035 2.13136 18.7533 2.12759C17.6124 2.15013 17.2781 2.59889 16.7835 3.58589ZM14.345 15.7786C14.345 16.5573 14.3456 17.2364 14.4372 17.993C14.4573 18.1624 14.4774 18.3317 14.4981 18.5062C14.52 18.6846 14.542 18.8631 14.5646 19.047C14.5869 19.233 14.6092 19.419 14.6322 19.6107C14.6909 20.101 14.7506 20.5912 14.8104 21.0814C14.8716 21.5833 14.9318 22.0854 14.9922 22.5874C15.1103 23.5693 15.2294 24.551 15.3491 25.5327C15.6013 25.5334 15.6013 25.5334 15.8586 25.5342C19.8479 25.5455 23.8372 25.5583 27.8264 25.5729C28.3171 25.5747 28.8078 25.5765 29.2986 25.5782C29.3963 25.5786 29.4939 25.579 29.5946 25.5793C31.1777 25.585 32.7608 25.5897 34.3439 25.594C35.9676 25.5985 37.5912 25.6041 39.2149 25.6106C40.1272 25.6142 41.0395 25.6173 41.9518 25.6193C42.8097 25.6211 43.6677 25.6243 44.5256 25.6285C44.8412 25.6298 45.1567 25.6306 45.4723 25.6309C45.9018 25.6313 46.3313 25.6336 46.7608 25.6362C46.8868 25.6359 47.0128 25.6357 47.1426 25.6354C48.005 25.6434 48.005 25.6434 48.4845 25.963C48.6451 26.4794 48.6701 26.7287 48.4486 27.2271C48.1976 27.5409 48.1976 27.5409 47.7673 27.6844C47.57 27.6978 47.3721 27.7035 47.1744 27.7043C47.0531 27.705 46.9319 27.7058 46.8069 27.7066C46.6737 27.7068 46.5404 27.7069 46.4031 27.7071C46.2616 27.7078 46.12 27.7085 45.9742 27.7092C45.4978 27.7114 45.0214 27.7126 44.545 27.7138C44.2044 27.7152 43.8637 27.7166 43.5231 27.7181C42.6927 27.7216 41.8623 27.7244 41.0319 27.727C40.0659 27.73 39.0998 27.7338 38.1337 27.7376C36.4108 27.7445 34.6879 27.7507 32.965 27.7565C31.2912 27.7621 29.6174 27.7681 27.9436 27.7744C27.7889 27.775 27.7889 27.775 27.6311 27.7756C27.1136 27.7776 26.5962 27.7795 26.0787 27.7815C21.7849 27.7978 17.4912 27.8131 13.1974 27.8278C13.2779 29.4589 13.4144 31.0741 13.6051 32.6958C13.6318 32.9273 13.6584 33.1587 13.685 33.3901C13.7564 34.0101 13.8286 34.6299 13.901 35.2498C13.977 35.9012 14.0523 36.5526 14.1277 37.2041C14.2541 38.2953 14.381 39.3864 14.5082 40.4775C14.6554 41.7389 14.8017 43.0003 14.9475 44.2619C15.0882 45.4788 15.2295 46.6958 15.371 47.9127C15.4311 48.4296 15.491 48.9465 15.5508 49.4634C15.621 50.0703 15.6917 50.6771 15.7627 51.2839C15.7887 51.5067 15.8146 51.7295 15.8402 51.9523C15.8753 52.2558 15.9108 52.5592 15.9465 52.8626C15.9663 53.0325 15.9861 53.2024 16.0065 53.3775C16.0551 53.7998 16.0551 53.7998 16.2097 54.2214C29.7479 54.2214 43.2861 54.2214 57.2345 54.2214C57.4766 52.8932 57.4766 52.8932 57.6594 51.5629C57.6707 51.4658 57.6821 51.3686 57.6938 51.2684C57.7311 50.949 57.7676 50.6295 57.8042 50.3099C57.831 50.0784 57.8579 49.8468 57.8848 49.6153C57.9573 48.9909 58.0292 48.3665 58.1008 47.742C58.1609 47.2194 58.2213 46.6968 58.2816 46.1742C58.424 44.9413 58.5659 43.7084 58.7075 42.4754C58.8533 41.2054 58.9999 39.9355 59.147 38.6657C59.2736 37.5727 59.3996 36.4797 59.5253 35.3867C59.6002 34.735 59.6753 34.0833 59.7509 33.4317C59.8219 32.8194 59.8922 32.207 59.9621 31.5946C59.9878 31.3705 60.0137 31.1463 60.0398 30.9222C60.222 29.3794 60.222 29.3794 60.2468 27.8278C60.1424 27.8267 60.038 27.8255 59.9304 27.8243C58.9448 27.8131 57.9592 27.8006 56.9736 27.7866C56.467 27.7794 55.9603 27.7728 55.4536 27.7673C54.8707 27.761 54.2879 27.7524 53.705 27.7438C53.5236 27.7421 53.3422 27.7404 53.1553 27.7387C52.9859 27.7359 52.8165 27.733 52.642 27.7301C52.4932 27.7282 52.3445 27.7263 52.1912 27.7243C51.763 27.6823 51.4498 27.5911 51.0665 27.3975C50.8477 26.96 50.8892 26.5881 50.923 26.1065C51.1493 25.7932 51.2787 25.69 51.661 25.619C51.7799 25.6174 51.8987 25.6158 52.0211 25.6141C52.156 25.6113 52.291 25.6085 52.43 25.6055C52.5752 25.6046 52.7205 25.6037 52.8701 25.6028C53.0937 25.5989 53.0937 25.5989 53.3218 25.595C53.7982 25.5872 54.2747 25.5823 54.7512 25.5775C55.074 25.5728 55.3968 25.5678 55.7197 25.5627C56.5115 25.5505 57.3033 25.5407 58.0952 25.5327C58.227 24.4517 58.358 23.3705 58.4879 22.2892C58.5483 21.787 58.609 21.2849 58.6703 20.7828C58.7409 20.2043 58.8103 19.6256 58.8796 19.047C58.9126 18.7793 58.9126 18.7793 58.9462 18.5062C58.9663 18.3368 58.9864 18.1675 59.0071 17.993C59.0249 17.8455 59.0428 17.6981 59.0612 17.5461C59.1082 16.9587 59.0993 16.3679 59.0993 15.7786C44.3304 15.7786 29.5614 15.7786 14.345 15.7786Z" fill="white"/>
<path d="M40.2813 32.8395C42.3378 34.2675 43.4623 36.2352 43.9805 38.6703C44.3957 41.1817 43.9675 43.8438 42.5131 45.9539C41.2197 47.6755 39.8712 48.7523 37.7262 49.201C35.8887 49.4045 34.2248 49.0223 32.746 47.8988C32.2184 47.4543 31.7316 46.9897 31.2713 46.4756C31.2053 46.4029 31.1392 46.3303 31.0712 46.2554C29.4416 44.2326 29.2628 41.4887 29.4065 39.0165C29.6607 36.7908 30.826 34.6882 32.5264 33.2429C34.8324 31.4764 37.8278 31.2675 40.2813 32.8395ZM37.8697 34.2829C37.7525 34.5337 37.6361 34.7847 37.52 35.036C37.4227 35.2457 37.4227 35.2457 37.3233 35.4596C36.8491 36.5728 36.8064 37.8966 37.2331 39.0345C37.5406 39.711 37.9475 40.3186 38.3555 40.9379C39.3851 42.6008 39.2581 44.3529 38.8738 46.1887C40.2647 45.5463 40.8959 44.2499 41.4557 42.8895C42.096 40.9169 41.8772 38.6874 40.9425 36.8503C40.1878 35.5892 39.3426 34.8789 38.0131 34.2829C37.9658 34.2829 37.9184 34.2829 37.8697 34.2829ZM33.3949 35.598C31.9412 37.2921 31.5824 39.2668 31.6759 41.4322C31.8201 43.1701 32.724 44.7631 33.9754 45.945C34.5643 46.4108 35.1857 46.7827 35.9517 46.7429C36.3092 46.6495 36.3092 46.6495 36.4823 46.3467C36.9298 45.1444 37.2403 43.9331 36.7636 42.6945C36.51 42.175 36.2216 41.6779 35.9332 41.1772C34.8193 39.2325 34.5258 37.3343 35.0725 35.1346C35.1412 34.8976 35.2117 34.6611 35.2877 34.4264C34.5684 34.4264 33.8794 35.1195 33.3949 35.598Z" fill="white"/>
</g>
</svg>
