<svg width="42" height="42" viewBox="0 0 42 42" fill="none" xmlns="http://www.w3.org/2000/svg">
<mask id="mask0_2398_56" style="mask-type:luminance" maskUnits="userSpaceOnUse" x="0" y="0" width="42" height="42">
<path d="M42 0H0V42H42V0Z" fill="white"/>
</mask>
<g mask="url(#mask0_2398_56)">
<path d="M34.1248 22.001L20.9998 34.9999L7.8748 22.001C7.00907 21.1586 6.32717 20.146 5.872 19.0271C5.41683 17.9082 5.19828 16.7072 5.23009 15.4996C5.26189 14.2921 5.54338 13.1042 6.05682 12.0108C6.57026 10.9174 7.30453 9.94219 8.21339 9.14651C9.12227 8.35083 10.186 7.75196 11.3377 7.3876C12.4894 7.02323 13.704 6.90128 14.9052 7.0294C16.1063 7.15752 17.2679 7.53298 18.3168 8.13208C19.3657 8.7312 20.2792 9.541 20.9998 10.5105C21.7235 9.54803 22.638 8.7453 23.6863 8.15255C24.7345 7.5598 25.8937 7.1898 27.0914 7.06565C28.2892 6.94153 29.4997 7.06596 30.6472 7.43119C31.7947 7.79641 32.8544 8.39453 33.7601 9.18814C34.6657 9.98174 35.3978 10.9537 35.9105 12.0433C36.4233 13.1329 36.7056 14.3165 36.7399 15.5202C36.7741 16.7239 36.5595 17.9217 36.1096 19.0387C35.6596 20.1556 34.9838 21.1677 34.1248 22.0115" stroke="white" stroke-width="1.29231" stroke-linecap="round" stroke-linejoin="round"/>
</g>
</svg>
