<svg width="80" height="80" viewBox="0 0 80 80" fill="none" xmlns="http://www.w3.org/2000/svg">
<mask id="mask0_2397_21" style="mask-type:luminance" maskUnits="userSpaceOnUse" x="0" y="0" width="80" height="80">
<path d="M79.0924 0H0V79.0924H79.0924V0Z" fill="white"/>
</mask>
<g mask="url(#mask0_2397_21)">
<path d="M37.5647 -0.0369628C37.786 -0.0392427 37.786 -0.0392427 38.0117 -0.0415686C41.2452 -0.0680092 44.4032 -0.0692723 47.5786 0.617756C47.8373 0.673687 47.8373 0.673687 48.1012 0.730748C56.6848 2.65625 56.6848 2.65625 58.3787 4.86528C58.5112 5.10733 58.6421 5.35025 58.771 5.59422C59.2046 6.0947 59.8426 6.01562 60.4696 6.07455C63.0585 6.56727 65.6629 9.51757 67.5062 11.2767C67.641 11.4051 67.7758 11.5336 67.9147 11.6659C68.7545 12.4851 69.5191 13.3429 70.242 14.2667C70.3839 14.4476 70.5266 14.6277 70.67 14.8073C73.3629 18.1845 75.435 21.9009 76.9293 25.952C76.9715 26.064 77.0136 26.1759 77.0571 26.2912C78.304 29.6329 79.0803 33.2659 79.1499 36.833C79.154 36.9612 79.158 37.0893 79.1622 37.2213C79.1649 38.2702 78.9118 39.0953 78.1705 39.8586C78.07 39.9275 77.9694 39.9964 77.8658 40.0674C77.7656 40.1387 77.6655 40.21 77.5623 40.2834C76.727 40.7719 76.0532 40.8242 75.1063 40.812C74.9125 40.8114 74.9125 40.8114 74.7148 40.8107C74.304 40.809 73.8933 40.8051 73.4825 40.8012C73.2032 40.7996 72.9239 40.7982 72.6447 40.797C71.9617 40.7936 71.2787 40.7882 70.5957 40.7819C70.5967 40.9549 70.5978 41.1279 70.5988 41.3062C70.6083 42.9403 70.6152 44.5743 70.6197 46.2084C70.6221 47.0485 70.6254 47.8884 70.6307 48.7284C70.6357 49.5398 70.6385 50.3511 70.6397 51.1624C70.6405 51.4712 70.6422 51.7801 70.6447 52.0889C70.6481 52.523 70.6485 52.957 70.6483 53.3911C70.6508 53.5807 70.6508 53.5807 70.6534 53.7742C70.6475 54.8791 70.4061 55.8151 69.7944 56.7413C69.0158 57.4853 68.1777 57.8662 67.0995 57.9446C66.1033 57.9018 65.1005 57.59 64.4166 56.8475C63.5731 55.7225 63.5327 54.6814 63.5404 53.3102C63.5374 53.0006 63.5344 52.6911 63.5314 52.3815C63.5281 51.9517 63.5284 51.522 63.5286 51.0922C63.5281 50.3361 63.5215 49.58 63.5157 48.8239C63.5129 48.4221 63.5113 48.0204 63.511 47.6186C63.5104 47.4375 63.5098 47.2565 63.5092 47.07C63.5091 46.8308 63.5091 46.8308 63.509 46.5868C63.5068 46.1703 63.5068 46.1703 63.3353 45.7252C63.0804 45.7761 62.8255 45.8271 62.5629 45.8796C62.5478 46.0549 62.5326 46.2301 62.517 46.4106C62.2516 49.2006 62.2516 49.2006 61.0471 50.3305C60.106 51.0927 59.1347 51.4408 57.9286 51.4408C56.4897 51.2863 55.5456 50.6813 54.6043 49.6173C53.9696 48.6761 54.0256 47.6962 54.0365 46.6049C54.0368 46.4571 54.0371 46.3092 54.0374 46.1569C54.039 45.6075 54.0433 45.058 54.0473 44.5086C54.0537 43.2788 54.0601 42.049 54.0666 40.7819C50.0394 40.7819 46.0122 40.7819 41.8629 40.7819C43.0099 42.77 43.0099 42.77 44.1801 44.7983C47.4627 50.4882 50.7454 56.1781 54.028 61.868C54.1237 62.0339 54.2194 62.1997 54.318 62.3705C54.5101 62.7037 54.7022 63.0369 54.8942 63.3701C55.3904 64.2311 55.8882 65.0911 56.3886 65.9496C56.9589 66.9289 57.523 67.9116 58.083 68.8968C58.1509 69.0147 58.2188 69.1327 58.2887 69.2542C58.9402 70.3963 59.445 71.4164 59.1644 72.7587C58.8462 73.7977 58.3638 74.4619 57.4265 75.0107C52.5625 77.5256 47.0502 79.0955 41.5522 79.1236C41.4096 79.1247 41.267 79.1258 41.1202 79.1269C40.6629 79.1296 40.2057 79.1306 39.7485 79.1309C39.5143 79.1311 39.5143 79.1311 39.2754 79.1312C37.0179 79.1288 34.8139 79.0788 32.5943 78.6288C32.4544 78.6015 32.3144 78.5742 32.1703 78.546C22.5854 76.636 22.5854 76.636 20.9059 74.2467C20.8037 74.0598 20.8037 74.0598 20.6995 73.869C20.5131 73.504 20.5131 73.504 20.2361 73.2221C19.7384 73.088 19.2602 73.0465 18.7474 72.9989C17.8568 72.852 17.2381 72.3652 16.5286 71.8318C16.3715 71.7165 16.2144 71.6012 16.0525 71.4824C13.4092 69.5141 11.0047 67.314 8.95922 64.7259C8.84711 64.5933 8.735 64.4606 8.61949 64.324C4.26324 59.1695 1.60782 52.6371 0.462967 46.0341C0.425331 45.8358 0.387695 45.6374 0.348919 45.4331C0.167819 44.3736 0.120148 43.3222 0.105738 42.2494C0.101612 42.0525 0.101612 42.0525 0.0974025 41.8516C0.0984282 41.0579 0.215079 40.5581 0.617444 39.855C0.586279 39.4291 0.489461 39.1376 0.304869 38.7544C-1.37121 33.82 1.94358 26.2403 4.07369 21.7955C5.67115 18.568 7.71468 15.5864 10.195 12.9759C10.3764 12.7677 10.5567 12.5586 10.7357 12.3484C11.8863 11.0311 13.1495 9.88743 14.5204 8.80506C14.6985 8.66117 14.8765 8.51714 15.0544 8.373C17.7544 6.19734 17.7544 6.19734 19.2706 6.05343C19.9609 5.99693 19.9609 5.99693 20.4774 5.59241C20.538 5.47691 20.5985 5.36142 20.6609 5.24242C21.8971 2.96694 26.2772 2.04704 28.5875 1.36118C31.4819 0.537001 34.5509 -0.0113628 37.5647 -0.0369628ZM24.407 5.59C24.2914 5.63954 24.1759 5.68909 24.0569 5.74014C23.1912 6.12202 23.1912 6.12202 22.5532 6.79685C22.5522 7.67995 22.8882 8.29738 23.3353 9.02712C23.3935 9.12539 23.4518 9.22366 23.5118 9.32491C23.6541 9.56452 23.7986 9.80284 23.9435 10.0409C24.6982 9.63654 25.419 9.21189 26.1255 8.72782C27.9663 7.57169 29.8281 7.32203 31.9521 7.07967C33.4178 6.91231 34.8313 6.65844 36.2631 6.2948C39.098 5.60578 41.3302 5.86871 44.1475 6.53285C45.4775 6.84447 46.7868 7.0729 48.1482 7.21201C50.9102 7.50395 52.864 8.46629 55.148 10.0409C55.5918 9.54585 55.9408 9.00899 56.2776 8.43817C56.401 8.23088 56.401 8.23088 56.5268 8.01939C56.7473 7.42123 56.7349 7.0945 56.5383 6.4879C56.1657 6.213 55.8826 6.0494 55.4666 5.86999C55.3559 5.81893 55.2452 5.76788 55.1312 5.71528C54.7785 5.5554 54.4233 5.40299 54.0666 5.25208C53.9562 5.20424 53.8458 5.15639 53.7321 5.1071C44.3933 1.09894 33.6385 1.58027 24.407 5.59ZM36.0286 8.7403C34.4751 9.14031 32.9222 9.33527 31.3288 9.49131C29.684 9.66983 28.28 10.1357 26.8883 11.045C26.6902 11.1716 26.6902 11.1716 26.4882 11.3008C26.0615 11.619 25.7014 11.974 25.3338 12.358C26.7731 14.9541 26.7731 14.9541 28.2592 17.5234C28.3173 17.6219 28.3754 17.7204 28.4353 17.8219C28.733 18.3263 29.0317 18.8301 29.3324 19.3328C29.6019 19.7835 29.8693 20.2356 30.1355 20.6883C30.2933 20.9553 30.4532 21.221 30.6132 21.4866C30.7581 21.7337 30.7581 21.7337 30.9059 21.9857C30.9931 22.1324 31.0804 22.2791 31.1703 22.4303C31.3852 22.9238 31.4128 23.2564 31.3585 23.7894C31.0354 24.2615 30.8497 24.3864 30.2868 24.4942C29.6718 24.3812 29.4133 24.1118 29.0413 23.6349C28.6713 23.0437 28.3402 22.433 28.0082 21.8198C27.8147 21.4683 27.621 21.1169 27.4271 20.7656C27.3331 20.5947 27.239 20.4237 27.1421 20.2476C26.8063 19.6427 26.4596 19.045 26.1062 18.4502C26.0477 18.3515 25.9891 18.2528 25.9288 18.1511C25.8036 17.9401 25.6783 17.729 25.553 17.5179C25.0839 16.7236 24.6204 15.926 24.1559 15.129C24.0588 14.9623 23.9616 14.7956 23.8615 14.6239C23.6313 14.2291 23.4012 13.8342 23.1711 13.4394C20.3312 14.6635 18.6479 16.0928 16.8472 18.6144C16.0123 19.7716 15.0599 20.7883 14.0377 21.7812C12.384 23.445 11.8 25.1402 11.1219 27.3423C10.9734 27.8163 10.8222 28.2894 10.6681 28.7616C10.6317 28.8732 10.5953 28.9848 10.5578 29.0997C10.2275 30.0821 9.8174 31.0229 9.37864 31.9614C8.7907 33.2267 8.60364 34.3035 8.6213 35.6938C8.6214 35.8432 8.6215 35.9927 8.62161 36.1466C8.62625 36.901 8.67925 37.5572 8.80475 38.3102C18.2356 38.3102 27.6664 38.3102 37.3831 38.3102C37.1671 37.7704 36.9633 37.3139 36.6807 36.8155C36.6021 36.6767 36.5236 36.5378 36.4427 36.3948C36.3156 36.172 36.3156 36.172 36.1859 35.9448C36.0978 35.7898 36.0098 35.6349 35.9191 35.4752C34.6927 33.3218 33.4583 31.1706 32.1595 29.0598C31.9194 28.631 31.8104 28.2989 31.8219 27.8058C31.986 27.3713 31.986 27.3713 32.2853 27.0334C32.8202 26.8473 33.0823 26.8176 33.5977 27.0608C34.0416 27.3839 34.2197 27.6584 34.4788 28.1401C34.5659 28.2993 34.6531 28.4586 34.7429 28.6227C34.8335 28.7928 34.9242 28.9629 35.0176 29.1381C35.2107 29.4919 35.404 29.8455 35.5975 30.199C35.6915 30.3718 35.7856 30.5446 35.8824 30.7226C36.2225 31.3412 36.5773 31.9498 36.939 32.556C37.8274 34.0509 38.6861 35.5628 39.5458 37.0744C40.0769 36.4555 40.4556 35.8088 40.8395 35.0952C41.4524 33.974 42.0852 32.8663 42.7319 31.7643C43.5326 30.3983 44.3233 29.027 45.1069 27.6513C45.9627 26.1496 46.8269 24.6531 47.6996 23.1611C48.5497 21.7073 49.3915 20.2488 50.2319 18.7894C50.5859 18.1746 50.9409 17.5604 51.2973 16.947C51.4556 16.6746 51.6138 16.402 51.7718 16.1294C51.9695 15.7887 52.1674 15.4482 52.3658 15.1079C52.9174 14.1559 53.4339 13.1945 53.9122 12.2036C51.6853 10.4473 49.7017 9.64525 46.8545 9.37469C45.4629 9.22888 44.1428 8.97542 42.7898 8.62162C40.3015 7.99264 38.5054 8.08566 36.0286 8.7403ZM18.141 9.16229C18.0006 9.2664 18.0006 9.2664 17.8574 9.37262C16.8635 10.1193 15.9155 10.9177 14.9838 11.7401C14.9054 11.8088 14.827 11.8775 14.7462 11.9482C7.85853 18.004 3.22978 27.0615 2.56712 36.2308C2.51199 37.185 2.51199 37.185 2.84047 38.0538C3.47402 38.4569 4.09369 38.3756 4.82695 38.3489C4.97152 38.3461 5.11609 38.3433 5.26504 38.3404C5.62122 38.3331 5.97708 38.323 6.33311 38.3102C6.32987 38.1812 6.32664 38.0521 6.3233 37.9191C6.31262 37.4291 6.30495 36.9391 6.29916 36.449C6.29462 36.1371 6.28676 35.8252 6.2788 35.5134C6.25919 33.5229 6.72981 31.8553 7.60755 30.0843C8.2598 28.7082 8.72073 27.3039 9.1404 25.8415C9.5791 24.3257 10.0459 22.8201 11.035 21.5688C11.0997 21.4867 11.1645 21.4046 11.2312 21.3201C11.8463 20.5615 12.5432 19.8919 13.2445 19.2141C14.1425 18.331 14.8594 17.3485 15.5785 16.3185C17.2253 13.9741 19.1256 12.538 21.7809 11.4312C21.6757 10.8412 21.4066 10.3902 21.105 9.87674C21.0114 9.71565 20.9178 9.55455 20.8214 9.38857C20.5116 8.88201 20.5116 8.88201 20.0816 8.4961C19.2527 8.3597 18.7756 8.67597 18.141 9.16229ZM58.138 9.81218C57.6275 10.5661 57.6275 10.5661 57.4651 11.4312C57.6274 11.5096 57.7897 11.5881 57.9569 11.6689C60.5787 12.9482 62.3684 14.3573 64.0245 16.7762C64.8358 17.9503 65.7528 18.983 66.7911 19.9648C68.6133 21.6891 69.5064 23.6675 70.1812 26.0486C70.2547 26.3061 70.3285 26.5636 70.4026 26.821C70.4401 26.9513 70.4775 27.0815 70.5161 27.2158C70.8459 28.3184 71.2868 29.349 71.7934 30.3816C72.7039 32.2768 73.0047 34.0443 72.9515 36.1282C72.9484 36.3417 72.9456 36.5551 72.943 36.7685C72.9359 37.2825 72.9258 37.7963 72.9129 38.3102C73.4149 38.3282 73.9168 38.3392 74.419 38.3489C74.6323 38.3566 74.6323 38.3566 74.8499 38.3645C75.6756 38.3871 75.6756 38.3871 76.4007 38.0375C77.336 36.5677 76.4469 33.8156 76.1171 32.2289C74.6357 25.5967 71.6905 19.5101 67.0427 14.5207C66.8553 14.3058 66.6686 14.0902 66.4828 13.8738C65.2354 12.4459 63.8203 11.2327 62.3119 10.0892C62.2 10.0034 62.088 9.9177 61.9727 9.82938C60.8853 8.9318 60.8853 8.9318 59.6182 8.39955C58.8301 8.56723 58.552 9.17782 58.138 9.81218ZM56.0748 13.4394C56.0113 13.551 55.9477 13.6626 55.8823 13.7776C54.6801 15.8879 53.4732 17.995 52.2469 20.0913C51.296 21.7174 50.3557 23.3494 49.4155 24.9816C48.9323 25.8202 48.4485 26.6585 47.9648 27.4968C47.7717 27.8315 47.5786 28.1662 47.3855 28.5009C46.2269 30.5091 46.2269 30.5091 45.9368 31.012C45.7452 31.344 45.5538 31.6761 45.3624 32.0082C44.9105 32.792 44.458 33.5755 44.0031 34.3577C43.7884 34.7268 43.5741 35.0962 43.3599 35.4656C43.2086 35.726 43.0568 35.9861 42.905 36.2462C42.8134 36.4042 42.7218 36.5622 42.6275 36.725C42.5467 36.8637 42.466 37.0023 42.3829 37.1452C42.1782 37.5261 42.0201 37.9079 41.8629 38.3102C41.9851 38.3107 42.1073 38.3113 42.2332 38.3118C45.2035 38.3243 48.1739 38.3385 51.1442 38.3547C52.5806 38.3624 54.0171 38.3696 55.4535 38.3754C56.7052 38.3805 57.957 38.3866 59.2087 38.3941C59.8717 38.398 60.5347 38.4014 61.1977 38.4034C61.8214 38.4054 62.4451 38.4088 63.0688 38.4133C63.298 38.4147 63.5272 38.4156 63.7565 38.4159C64.0688 38.4164 64.3812 38.419 64.6936 38.4217C64.8686 38.4226 65.0436 38.4234 65.2239 38.4243C65.6524 38.4647 65.6524 38.4647 66.1159 38.7737C66.245 39.3099 66.3255 39.6938 66.1448 40.2219C65.9614 40.4729 65.9614 40.4729 65.6524 40.6274C65.3623 40.6459 65.0714 40.6548 64.7807 40.6591C64.5983 40.6622 64.4158 40.6653 64.2278 40.6685C63.9312 40.6723 63.9312 40.6723 63.6285 40.6763C63.4267 40.6795 63.2248 40.6827 63.0168 40.686C62.48 40.6945 61.9431 40.7022 61.4062 40.7096C60.8585 40.7174 60.3107 40.726 59.763 40.7345C58.6881 40.7511 57.6132 40.7668 56.5383 40.7819C56.5226 41.7797 56.5118 42.7775 56.5043 43.7754C56.5012 44.1148 56.497 44.4542 56.4917 44.7936C56.4842 45.2817 56.4807 45.7698 56.4779 46.258C56.4747 46.4094 56.4716 46.5609 56.4683 46.7169C56.468 47.3846 56.473 47.7778 56.819 48.3614C57.2828 48.7724 57.6239 48.886 58.2375 48.9692C58.9471 48.7563 59.4136 48.5432 59.7823 47.8878C59.9556 47.368 59.9643 46.9385 59.9851 46.3913C60.0465 45.489 60.1327 44.7455 60.7092 44.0259C61.6967 43.2399 62.5714 43.1377 63.7987 43.2535C64.7112 43.4943 65.1906 43.9715 65.6663 44.7681C65.955 45.4645 65.9809 46.1945 65.9858 46.9403C65.9873 47.115 65.9889 47.2897 65.9906 47.4697C65.9917 47.6561 65.9928 47.8425 65.994 48.0345C65.9983 48.4306 66.0027 48.8268 66.0073 49.2229C66.0136 49.8464 66.0195 50.4698 66.0234 51.0933C66.0273 51.6957 66.0347 52.2981 66.0423 52.9005C66.043 53.1815 66.043 53.1815 66.0438 53.4681C66.0463 53.6413 66.0489 53.8146 66.0515 53.9931C66.0528 54.1457 66.054 54.2983 66.0553 54.4555C66.1255 54.9005 66.226 55.0336 66.5793 55.3027C66.8654 55.458 66.8654 55.458 67.1972 55.4572C67.6192 55.2787 67.6192 55.2787 67.9696 54.9938C68.1109 54.57 68.1436 54.3217 68.1444 53.8854C68.145 53.7542 68.1456 53.6229 68.1462 53.4877C68.1462 53.3442 68.1461 53.2007 68.146 53.0529C68.1465 52.9014 68.1471 52.7499 68.1476 52.5938C68.1488 52.2645 68.1496 51.9353 68.1501 51.6061C68.1512 51.0855 68.1537 50.5649 68.1565 50.0443C68.1646 48.5641 68.172 47.0839 68.1744 45.6036C68.176 44.6986 68.1805 43.7937 68.187 42.8887C68.1889 42.5433 68.1897 42.1979 68.1893 41.8524C68.189 41.3701 68.1924 40.888 68.1967 40.4056C68.1957 40.2621 68.1946 40.1186 68.1936 39.9708C68.2077 39.0063 68.2077 39.0063 68.5677 38.609C68.9579 38.4378 69.2826 38.3865 69.7075 38.3585C69.8453 38.3484 69.9831 38.3382 70.125 38.3277C70.2816 38.3191 70.2816 38.3191 70.4412 38.3102C70.8832 36.3228 70.8337 33.9832 69.9778 32.1311C69.7596 31.6463 69.5448 31.16 69.3309 30.6733C69.271 30.5386 69.2112 30.4039 69.1495 30.2651C68.545 28.8672 68.1133 27.4219 67.7025 25.9578C67.2704 24.471 66.6529 23.3821 65.6042 22.2446C65.4843 22.1138 65.3644 21.9829 65.2409 21.8481C64.9143 21.5079 64.5769 21.1866 64.2332 20.8639C63.5357 20.1799 62.9794 19.4129 62.4084 18.624C60.5811 16.1005 58.9114 14.7094 56.0748 13.4394ZM2.84047 41.0383C1.79482 42.7977 3.02329 46.5521 3.47105 48.3965C5.7534 57.2229 11.2998 65.7411 19.1547 70.596C19.6249 70.7248 19.6249 70.7248 20.0816 70.596C20.8 69.9136 21.3383 69.0079 21.7809 68.1244C21.7809 67.9714 21.7809 67.8185 21.7809 67.6609C21.697 67.623 21.6131 67.5851 21.5267 67.5461C18.6123 66.2107 16.8619 64.636 14.9935 62.0225C14.1875 60.9048 13.2761 59.9125 12.2805 58.9619C10.44 57.1247 9.64592 55.0866 8.94508 52.6402C8.90833 52.5121 8.87158 52.3839 8.83371 52.2518C8.79686 52.1227 8.76001 51.9937 8.72204 51.8607C8.3963 50.7626 7.95669 49.7381 7.45258 48.7105C6.54202 46.8153 6.24132 45.0477 6.29449 42.9639C6.2976 42.7505 6.30042 42.537 6.30294 42.3236C6.31013 41.8096 6.32022 41.2958 6.33311 40.7819C5.8311 40.7639 5.32918 40.7529 4.82695 40.7433C4.68477 40.7381 4.54259 40.7329 4.39611 40.7276C3.57388 40.7088 3.57388 40.7088 2.84047 41.0383ZM8.80475 40.7819C8.46115 42.8434 8.38753 45.034 9.26818 46.961C9.48602 47.446 9.70106 47.9322 9.91505 48.4189C9.97494 48.5535 10.0348 48.6882 10.0965 48.827C10.7009 50.225 11.1327 51.6702 11.5435 53.1343C11.9738 54.6151 12.5882 55.7042 13.6322 56.8379C13.7516 56.9683 13.8711 57.0987 13.9942 57.2331C14.3526 57.6061 14.7241 57.9596 15.0997 58.3151C15.906 59.1076 16.533 60.0008 17.1839 60.9223C18.854 63.2777 20.563 64.485 23.1711 65.6527C23.2582 65.5018 23.2582 65.5018 23.3471 65.3478C33.0191 48.583 33.0191 48.583 33.3092 48.0801C33.5008 47.7481 33.6922 47.4161 33.8836 47.084C34.3355 46.3001 34.788 45.5166 35.2429 44.7344C35.4576 44.3653 35.6719 43.9959 35.8861 43.6265C36.0374 43.3661 36.1892 43.106 36.341 42.8459C36.4326 42.6879 36.5242 42.5299 36.6185 42.3671C36.6992 42.2284 36.78 42.0898 36.8631 41.9469C37.1122 41.5011 37.1122 41.5011 37.3831 40.7819C27.9522 40.7819 18.5214 40.7819 8.80475 40.7819ZM39.5458 42.0177C39.4645 42.1641 39.4645 42.1641 39.3815 42.3134C38.2003 44.4379 36.9998 46.5491 35.7707 48.6463C35.2 49.6204 34.6351 50.5978 34.0715 51.576C33.9753 51.7428 33.8791 51.9097 33.78 52.0816C33.5851 52.4199 33.3902 52.7582 33.1954 53.0965C32.7122 53.9351 32.2284 54.7734 31.7446 55.6117C31.5515 55.9464 31.3584 56.2811 31.1654 56.6158C30.0068 58.624 30.0068 58.624 29.7167 59.1267C29.525 59.4592 29.3332 59.7916 29.1416 60.1241C28.6922 60.9034 28.2424 61.6825 27.7909 62.4606C27.6313 62.7357 27.4719 63.0109 27.3125 63.2861C27.1126 63.631 26.9125 63.9758 26.7121 64.3204C26.2235 65.1644 25.7582 66.0104 25.3338 66.8886C26.5158 67.7733 27.657 68.5687 29.0057 69.1816C29.3502 69.3602 29.3502 69.3602 29.5047 69.6692C29.5753 70.6391 29.5753 70.6391 29.3213 71.0401C28.9623 71.263 28.6895 71.3195 28.2689 71.3684C26.7151 70.9811 25.3876 69.9585 24.098 69.0512C23.6671 69.5683 23.3052 70.0851 22.9781 70.6732C22.8574 70.8859 22.8574 70.8859 22.7343 71.1029C22.5385 71.557 22.4679 71.8085 22.5532 72.2953C23.0319 72.9677 23.7798 73.2453 24.5132 73.5697C24.6482 73.6296 24.7833 73.6895 24.9224 73.7512C34.1291 77.72 44.4751 77.6319 53.7577 73.9945C54.2681 73.7829 54.7722 73.5607 55.2735 73.3283C55.3825 73.2781 55.4914 73.2278 55.6037 73.1761C56.1186 72.9271 56.3688 72.7811 56.6927 72.2953C56.6593 71.4046 56.3633 70.8037 55.9107 70.065C55.8525 69.9667 55.7942 69.8685 55.7342 69.7672C55.5919 69.5276 55.4474 69.2893 55.3025 69.0512C54.5382 69.4607 53.8031 69.8924 53.0818 70.3739C51.4136 71.4442 49.6075 71.7784 47.664 71.9768C46.086 72.1379 44.579 72.4006 43.0408 72.7877C39.7423 73.5841 36.1729 73.3175 33.0046 71.9889C32.7487 71.8318 32.7487 71.8318 32.5943 71.5229C32.5226 70.5373 32.5226 70.5373 32.7907 70.179C33.2801 69.8107 33.8689 69.9148 34.448 69.9781C35.1017 70.1071 35.7437 70.2747 36.3886 70.4415C38.8951 71.0424 40.7244 71.0055 43.2089 70.3521C44.7744 69.9514 46.34 69.7527 47.9443 69.5872C50.3082 69.3259 52.0626 68.3455 53.9122 66.8886C53.2494 65.5037 52.5226 64.1775 51.7368 62.8595C51.2075 61.971 50.6918 61.0747 50.1757 60.1784C50.0773 60.0075 49.9788 59.8366 49.8773 59.6606C49.6752 59.3097 49.4731 58.9587 49.271 58.6078C48.7845 57.7633 48.2974 56.9192 47.8103 56.0751C47.6172 55.7404 47.4241 55.4057 47.231 55.071C47.0876 54.8225 47.0876 54.8225 46.9414 54.569C44.5277 50.3852 42.1139 46.2015 39.7002 42.0177C39.6493 42.0177 39.5983 42.0177 39.5458 42.0177Z" fill="white"/>
<path d="M24.9304 49.4911C26.1033 50.2945 27.1789 51.4832 27.5801 52.8715C27.9043 54.753 27.7105 56.536 26.6103 58.1322C25.5687 59.4056 24.169 60.1278 22.5553 60.4011C20.6829 60.5325 19.2026 59.9399 17.7768 58.7646C16.7082 57.7903 16.1261 56.5498 16.0359 55.1127C16.0124 53.3511 16.3089 51.9344 17.4962 50.5821C17.7065 50.3958 17.7065 50.3958 17.921 50.2056C18.0046 50.1291 18.0883 50.0527 18.1744 49.9739C20.0966 48.3587 22.7961 48.217 24.9304 49.4911ZM19.4851 52.0979C18.7199 52.9484 18.4435 53.7858 18.4864 54.9196C18.6361 56.0138 19.2312 56.722 20.0728 57.4021C20.8651 57.9432 21.6172 57.986 22.5354 57.8462C23.6296 57.6093 24.2233 56.9391 24.8725 56.0757C25.2984 55.372 25.2802 54.5582 25.1814 53.7586C24.8587 52.7539 24.2557 52.046 23.3663 51.48C21.9521 50.9361 20.6225 51.0369 19.4851 52.0979Z" fill="white"/>
<path d="M28.7927 25.8529C30.2129 26.8657 31.1383 28.2193 31.4635 29.9362C31.696 31.561 31.2718 33.0315 30.3894 34.404C29.3757 35.7449 28.1576 36.4059 26.5208 36.6693C24.7648 36.8607 23.3889 36.5583 21.9348 35.53C20.8327 34.565 20.1682 33.3696 19.8011 31.9577C19.7915 31.8112 19.782 31.6646 19.7721 31.5136C19.7626 31.4166 19.753 31.3197 19.7431 31.2197C19.6594 29.7728 20.1193 28.2635 21.0562 27.1532C23.1488 24.9541 26.0519 24.3013 28.7927 25.8529ZM22.8961 28.9014C22.3351 29.7778 22.1423 30.5472 22.2896 31.5866C22.5407 32.4893 23.0668 33.153 23.7789 33.7439C24.7235 34.2258 25.5302 34.4079 26.5691 34.1397C27.5978 33.8007 28.1954 33.218 28.7318 32.286C29.0846 31.4424 29.1187 30.6913 28.8863 29.8144C28.432 28.8022 27.7583 28.067 26.7429 27.6034C25.2075 27.2656 23.8702 27.6233 22.8961 28.9014Z" fill="white"/>
<path d="M39.1238 10.8325C40.4377 12.0885 41.0882 13.4382 41.1513 15.2544C41.1271 16.8834 40.5917 18.2098 39.481 19.4059C38.1011 20.6849 36.7441 21.2239 34.8588 21.1957C33.3624 21.0762 31.8709 20.3783 30.8496 19.2708C29.6037 17.6815 29.331 16.0204 29.5076 14.0572C29.8686 12.3592 30.7781 11.2093 32.2079 10.2682C34.4342 8.96699 37.1608 9.17418 39.1238 10.8325ZM32.7052 13.1496C31.9815 13.9481 31.9035 14.7874 31.9346 15.821C31.9938 16.3498 32.1482 16.705 32.4427 17.1467C32.5765 17.3474 32.5765 17.3474 32.713 17.5522C33.4264 18.3053 34.2383 18.6514 35.2619 18.7301C36.4024 18.6541 37.1569 18.2827 37.9302 17.437C38.5482 16.6506 38.7104 15.8816 38.6749 14.905C38.5355 13.8965 38.0196 13.175 37.2315 12.5516C35.6018 11.5299 34.0589 11.873 32.7052 13.1496Z" fill="white"/>
<path d="M40.0395 57.3699C41.1916 58.4003 41.9307 59.7098 42.0501 61.2759C42.0802 63.1734 41.6136 64.5906 40.3135 65.9929C39.0508 67.1998 37.5592 67.7295 35.8209 67.7036C34.1506 67.5449 32.8405 66.8926 31.7086 65.6719C30.6947 64.4234 30.1905 62.9486 30.3123 61.3465C30.5167 59.8072 31.105 58.3597 32.2867 57.3114C34.7367 55.5807 37.6505 55.4385 40.0395 57.3699ZM34.0149 59.1361C33.2277 59.9233 32.8831 60.641 32.8563 61.7429C32.8688 62.8966 33.1456 63.5684 33.9473 64.3884C34.8394 64.9888 35.6752 65.3237 36.7665 65.1897C37.8778 64.8748 38.5897 64.2828 39.2382 63.336C39.629 62.5204 39.6921 61.6846 39.4463 60.8179C39.0534 59.8144 38.4829 59.1393 37.4906 58.6968C36.2157 58.2439 35.1523 58.4031 34.0149 59.1361Z" fill="white"/>
<path d="M65.0922 26.3772C66.5086 27.5725 67.3423 28.9087 67.5427 30.775C67.5946 32.3702 67.1505 33.8617 66.1017 35.0774C64.9372 36.2539 63.5467 36.9751 61.8777 37.0796C60.2019 37.0592 58.6457 36.4819 57.4027 35.3447C56.2612 34.058 55.7905 32.5914 55.7656 30.8957C55.8677 29.2867 56.4953 27.9141 57.6773 26.8117C59.8111 25.0639 62.7547 24.7192 65.0922 26.3772ZM59.0193 29.0033C58.4552 29.8922 58.1026 30.767 58.3048 31.8268C58.6376 32.9935 59.1892 33.6863 60.2455 34.2942C61.0869 34.6461 61.8439 34.6954 62.7171 34.4487C63.7324 33.9708 64.4158 33.3092 64.8798 32.286C65.1738 31.294 65.0774 30.4617 64.6324 29.5386C64.1589 28.7887 63.511 28.2734 62.7171 27.893C61.2994 27.6272 60.0365 27.9064 59.0193 29.0033Z" fill="white"/>
<path d="M49.4726 61.3568C50.1907 62.0912 50.5954 62.9127 50.6741 63.9437C50.6583 65.1368 50.2769 66.0403 49.434 66.889C48.5206 67.5716 47.6255 67.7704 46.4989 67.6614C45.4776 67.4457 44.7216 66.8811 44.0273 66.1166C43.4524 65.2004 43.4419 64.2328 43.5639 63.1816C43.8431 62.1455 44.5588 61.4688 45.4176 60.8644C46.8066 60.1847 48.2444 60.5301 49.4726 61.3568ZM46.3831 63.2781C45.9984 63.6198 45.9984 63.6198 45.939 64.1084C46 64.5957 46 64.5957 46.3734 64.9484C46.7842 65.2246 46.7842 65.2246 47.2134 65.1801C47.6165 65.021 47.8058 64.935 48.0437 64.5719C48.129 63.9995 48.12 63.7485 47.7734 63.2781C47.246 62.8972 46.9289 62.9556 46.3831 63.2781Z" fill="white"/>
<path d="M52.2806 29.8529C53.1645 30.4861 53.6499 31.2383 53.9123 32.2859C54.0643 33.3166 53.8637 34.1934 53.2944 35.0665C52.5734 35.872 51.8714 36.3769 50.7799 36.4948C49.6831 36.5506 48.7641 36.3283 47.9203 35.6006C47.1853 34.8095 46.8589 33.9871 46.7388 32.9232C46.7871 31.9001 47.1644 30.9152 47.9167 30.2101C49.2103 29.2433 50.8538 29.0148 52.2806 29.8529ZM49.4325 32.2859C49.2262 32.7256 49.2262 32.7256 49.278 33.2128C49.5741 33.6891 49.5741 33.6891 50.0504 33.9852C50.6032 33.9962 50.8591 33.9336 51.2765 33.57C51.5065 33.0695 51.4624 32.8036 51.2862 32.2859C50.549 31.7189 50.1696 31.7189 49.4325 32.2859Z" fill="white"/>
<path d="M60.0925 18.2285C60.8132 18.8251 61.1651 19.6416 61.3283 20.5456C61.3959 21.635 61.1805 22.458 60.527 23.3347C59.9112 23.9956 59.155 24.4916 58.2388 24.5621C58.0763 24.578 57.9138 24.5939 57.7464 24.6103C56.639 24.5196 55.7544 24.1717 54.9947 23.3456C54.2415 22.3815 54.0807 21.4385 54.2223 20.2367C54.5094 19.1213 55.1382 18.4098 56.0761 17.7651C57.4549 17.0757 58.8625 17.4012 60.0925 18.2285ZM57.0319 20.256C56.6471 20.6712 56.6471 20.6712 56.6843 21.1829C56.8196 21.6295 56.8196 21.6295 57.1091 21.9263C57.6097 22.1563 57.8756 22.1122 58.3932 21.9359C58.7285 21.6132 58.7285 21.6132 58.8567 21.1636C58.7813 20.6672 58.7813 20.6672 58.5477 20.2367C57.9189 19.8175 57.6394 19.797 57.0319 20.256Z" fill="white"/>
<path d="M15.8932 30.828C16.7098 31.4353 17.2576 32.2086 17.4573 33.2127C17.547 34.2535 17.3688 35.0839 16.8394 35.9933C16.1335 36.8088 15.4099 37.3044 14.3249 37.4216C13.1956 37.4791 12.2783 37.2471 11.4254 36.4821C10.6096 35.6022 10.2692 34.7917 10.3036 33.5887C10.4236 32.6427 10.7602 31.7959 11.4616 31.1369C12.7949 30.1405 14.4435 29.9466 15.8932 30.828ZM12.9774 33.2127C12.7711 33.6524 12.7711 33.6524 12.8229 34.1396C13.119 34.6159 13.119 34.6159 13.5953 34.912C14.1482 34.923 14.404 34.8604 14.8215 34.4968C15.0515 33.9962 15.0074 33.7304 14.8312 33.2127C14.094 32.6457 13.7146 32.6457 12.9774 33.2127Z" fill="white"/>
<path d="M41.313 23.5677C42.1815 24.0854 42.7903 24.8378 43.0992 25.7979C43.2285 26.9725 43.2298 28.0811 42.4812 29.042C41.8077 29.7554 41.1526 30.22 40.1562 30.3297C38.9236 30.3444 38.0311 30.2713 37.1138 29.4052C36.2327 28.4375 36.0752 27.5915 36.1 26.2964C36.2067 25.1812 36.7128 24.5256 37.5567 23.8247C38.6293 23.1245 40.1426 23.0412 41.313 23.5677ZM38.8703 26.0393C38.5649 26.4182 38.5649 26.4182 38.6386 26.9758C38.7286 27.5042 38.7286 27.5042 39.0827 27.8061C39.803 27.8778 39.803 27.8778 40.4634 27.6324C40.7094 27.1983 40.6975 26.9059 40.6275 26.4158C40.3212 25.9847 40.144 25.8248 39.6234 25.7207C39.2203 25.7762 39.2203 25.7762 38.8703 26.0393Z" fill="white"/>
<path d="M42.0184 48.3516C42.8184 49.1606 43.144 49.8889 43.1577 51.026C43.1373 52.0855 42.9545 52.7833 42.2326 53.5646C41.3268 54.4021 40.4388 54.6162 39.2191 54.588C38.1493 54.4501 37.3367 53.9695 36.6793 53.1211C36.0211 52.1628 36.0545 51.181 36.1482 50.0508C36.4077 49.0816 37.0356 48.4472 37.8475 47.8882C39.2094 47.1362 40.8398 47.3648 42.0184 48.3516ZM38.7744 50.3598C38.5724 50.5296 38.5724 50.5296 38.5716 50.9487C38.5827 51.4459 38.5827 51.4459 38.8613 51.8177C39.2418 52.1107 39.2418 52.1107 39.7978 52.0494C40.3585 51.9548 40.3585 51.9548 40.6281 51.4411C40.6989 50.7994 40.6989 50.7994 40.435 50.2343C39.7552 49.773 39.4348 49.8957 38.7744 50.3598Z" fill="white"/>
<path d="M23.5299 16.6834C24.4182 17.1785 25.0137 17.8813 25.3353 18.8461C25.4343 20.0322 25.4765 21.1205 24.7174 22.0901C23.8767 23.0093 23.1356 23.3972 21.8885 23.5384C20.6021 23.4076 19.727 22.9444 18.9052 21.9508C18.2678 20.9783 18.2366 19.978 18.3838 18.8461C18.7549 17.8351 19.3266 17.178 20.2635 16.6587C21.323 16.173 22.474 16.2067 23.5299 16.6834ZM20.8555 19.464C20.7396 19.9275 20.7396 19.9275 20.8555 20.3909C21.175 20.7881 21.175 20.7881 21.6279 21.0088C22.075 20.9982 22.3086 20.9144 22.6802 20.6709C22.9579 20.2471 22.9344 19.959 22.8637 19.464C22.5573 19.0329 22.3802 18.873 21.8596 18.7689C21.339 18.873 21.1618 19.0329 20.8555 19.464Z" fill="white"/>
<path d="M28.7907 41.5446C29.717 42.0652 30.2546 42.8758 30.5865 43.8714C30.6937 45.1664 30.5311 46.0574 29.7851 47.1444C28.9376 47.9919 28.2374 48.236 27.0335 48.2836C25.9084 48.2488 25.2657 47.9766 24.4816 47.1884C23.7888 46.4038 23.4972 45.6942 23.4805 44.6438C23.5913 43.6048 23.893 42.7693 24.7061 42.0696C25.9407 41.1136 27.3213 40.8957 28.7907 41.5446ZM26.1066 44.1803C26.0401 44.7125 26.0088 45.0833 26.2708 45.561C26.7485 45.823 27.1193 45.7916 27.6514 45.7251C27.989 45.5024 27.989 45.5024 28.1148 45.1072C28.1159 44.5479 28.1159 44.5479 27.9604 44.0259C27.2778 43.5708 26.6745 43.5283 26.1066 44.1803Z" fill="white"/>
<path d="M16.4328 43.2444C17.3591 43.765 17.8967 44.5756 18.2286 45.5712C18.3427 46.7122 18.2558 47.6912 17.6107 48.6607C16.9549 49.3848 16.2728 49.8398 15.2856 49.9485C14.0556 49.9632 13.1518 49.8947 12.2432 49.0186C11.4564 48.1413 11.1401 47.3702 11.1226 46.1891C11.244 45.1276 11.6994 44.3104 12.5032 43.6016C13.6801 42.737 15.0971 42.6584 16.4328 43.2444ZM13.9322 45.6098C13.716 45.9284 13.617 46.1111 13.5942 46.4981C13.7716 46.8446 13.9356 47.1483 14.2122 47.4249C14.76 47.4858 15.0461 47.4845 15.5156 47.1836C15.8086 46.803 15.8086 46.803 15.7473 46.247C15.6526 45.6863 15.6526 45.6863 15.139 45.4167C14.4973 45.3459 14.4973 45.3459 13.9322 45.6098Z" fill="white"/>
<path d="M50.05 11.4311C50.8501 12.2401 51.1756 12.9684 51.1893 14.1055C51.1689 15.165 50.9861 15.8628 50.2642 16.6441C49.3579 17.4821 48.4716 17.6926 47.2519 17.6693C46.319 17.5456 45.5534 17.1225 44.8847 16.4709C44.2104 15.3381 44.0245 14.4563 44.1799 13.1303C44.4513 12.1624 45.0639 11.529 45.8791 10.9677C47.241 10.2157 48.8714 10.4443 50.05 11.4311ZM46.806 13.4393C46.604 13.6091 46.604 13.6091 46.6032 14.0282C46.6143 14.5254 46.6143 14.5254 46.8929 14.8972C47.2735 15.1902 47.2735 15.1902 47.8294 15.1289C48.3902 15.0343 48.3902 15.0343 48.6597 14.5206C48.7305 13.8789 48.7305 13.8789 48.4666 13.3138C47.7869 12.8525 47.4664 12.9752 46.806 13.4393Z" fill="white"/>
</g>
</svg>
