<svg width="69" height="69" viewBox="0 0 69 69" fill="none" xmlns="http://www.w3.org/2000/svg">
<mask id="mask0_2260_55" style="mask-type:luminance" maskUnits="userSpaceOnUse" x="0" y="0" width="69" height="69">
<path d="M43.3139 2.47955e-05L0 25.0073L25.0073 68.3212L68.3212 43.3139L43.3139 2.47955e-05Z" fill="white"/>
</mask>
<g mask="url(#mask0_2260_55)">
<path d="M20.5607 13.1098C20.6811 13.0386 20.6811 13.0386 20.804 12.9659C22.5664 11.9291 24.2954 10.9299 26.2516 10.3022C26.411 10.251 26.411 10.251 26.5735 10.1988C31.883 8.53931 31.883 8.53931 33.5092 9.21347C33.6582 9.30415 33.8067 9.39579 33.9544 9.48865C34.3502 9.62561 34.6746 9.38058 35.0365 9.21462C36.6101 8.66589 38.9692 9.45814 40.5348 9.8387C40.6493 9.86641 40.7637 9.89412 40.8816 9.92268C41.6005 10.1058 42.2904 10.3338 42.9784 10.6111C43.1133 10.6653 43.2484 10.7189 43.3838 10.7719C45.9263 11.7699 48.2361 13.15 50.3353 14.8961C50.3938 14.944 50.4522 14.992 50.5125 15.0414C52.252 16.4772 53.8258 18.2213 54.9917 20.1528C55.0344 20.2217 55.0772 20.2906 55.1212 20.3616C55.4543 20.9351 55.5766 21.467 55.412 22.1194C55.3787 22.1889 55.3454 22.2584 55.3111 22.3301C55.2788 22.4008 55.2465 22.4715 55.2132 22.5443C54.9102 23.0759 54.5578 23.3176 54.0354 23.6103C53.929 23.6713 53.929 23.6713 53.8205 23.7334C53.595 23.8623 53.3689 23.9901 53.1427 24.1178C52.9892 24.2053 52.8358 24.2928 52.6825 24.3804C52.3074 24.5945 51.9317 24.8075 51.5557 25.02C51.6109 25.1144 51.6662 25.2088 51.7231 25.3061C52.245 26.198 52.7654 27.0907 53.2846 27.9842C53.5515 28.4434 53.8189 28.9024 54.0873 29.3608C54.3466 29.8035 54.6046 30.2469 54.8618 30.6908C54.9599 30.8597 55.0585 31.0283 55.1575 31.1966C55.2966 31.4333 55.4341 31.6708 55.5712 31.9086C55.6326 32.0117 55.6325 32.0117 55.6951 32.1168C56.0413 32.7238 56.2049 33.3127 56.1628 34.0133C55.9717 34.6669 55.6331 35.1405 55.0674 35.5243C54.5084 35.8159 53.8606 35.9622 53.2514 35.7718C52.4337 35.4224 52.0824 34.865 51.6531 34.1117C51.5536 33.9431 51.4541 33.7745 51.3545 33.6059C51.2168 33.3716 51.0811 33.1362 50.9453 32.9007C50.706 32.4868 50.4633 32.0749 50.2211 31.6626C50.0925 31.4435 49.9646 31.224 49.8374 31.004C49.7799 30.9051 49.7223 30.8061 49.663 30.7042C49.5873 30.5732 49.5873 30.5732 49.5101 30.4396C49.3772 30.2122 49.3772 30.2122 49.1425 30.0227C49.0191 30.1312 48.8956 30.2397 48.7684 30.3515C48.8155 30.4522 48.8626 30.553 48.9112 30.6568C49.6479 32.2686 49.6479 32.2686 49.3455 33.2682C49.0712 33.9832 48.6493 34.4809 47.9888 34.8623C47.1519 35.2326 46.4437 35.1998 45.5917 34.9147C44.9466 34.6 44.6674 34.0456 44.3283 33.4446C44.2818 33.3635 44.2352 33.2824 44.1872 33.1989C44.0143 32.8975 43.843 32.5953 43.6715 32.2931C43.2861 31.6176 42.9008 30.9421 42.5037 30.2461C40.2983 31.5194 38.0928 32.7927 35.8205 34.1047C37.0773 34.8308 37.0773 34.8308 38.3594 35.5716C41.9561 37.6497 45.5528 39.7278 49.1496 41.8059C49.2544 41.8664 49.3592 41.927 49.4672 41.9894C49.6778 42.1111 49.8883 42.2328 50.0989 42.3546C50.6428 42.6692 51.1873 42.9828 51.7328 43.2947C52.3547 43.6507 52.9744 44.0105 53.5926 44.3729C53.667 44.4161 53.7415 44.4592 53.8182 44.5037C54.5361 44.9231 55.1351 45.3222 55.4058 46.146C55.5601 46.8156 55.5059 47.3319 55.1661 47.9287C53.2976 50.8439 50.7752 53.4465 47.7732 55.2003C47.6954 55.2459 47.6177 55.2916 47.5376 55.3386C47.2881 55.4847 47.038 55.6298 46.7877 55.7745C46.6595 55.8486 46.6595 55.8486 46.5287 55.9243C45.2917 56.6367 44.0689 57.3062 42.7111 57.7616C42.6258 57.7908 42.5405 57.8201 42.4527 57.8503C36.5998 59.8348 36.5998 59.8348 34.9246 59.0574C34.8095 58.9873 34.8095 58.9873 34.6921 58.9158C34.4746 58.7748 34.4746 58.7748 34.2338 58.708C33.9189 58.7919 33.6438 58.9204 33.348 59.0564C32.8138 59.2576 32.3211 59.1866 31.7639 59.1189C31.6414 59.1054 31.5189 59.0919 31.3927 59.0781C29.3227 58.8359 27.3104 58.3913 25.3719 57.6207C25.2685 57.5835 25.1652 57.5463 25.0587 57.508C21.0433 56.0625 17.5238 53.3248 14.8091 50.0707C14.7257 49.974 14.6424 49.8773 14.5566 49.7776C14.1224 49.2547 13.7639 48.6939 13.4168 48.111C13.3523 48.0045 13.3523 48.0045 13.2865 47.8958C13.0361 47.4608 12.9419 47.1502 12.94 46.638C12.7882 46.4146 12.6431 46.2856 12.4208 46.134C9.94281 43.9617 9.36157 38.7628 9.12273 35.6551C8.9771 33.3825 9.1535 31.1036 9.68647 28.8898C9.71994 28.7184 9.75255 28.5469 9.78414 28.3752C9.99777 27.29 10.3279 26.2643 10.7364 25.2381C10.7885 25.103 10.8404 24.9678 10.8923 24.8326C11.683 22.7875 11.683 22.7875 12.4678 22.2293C12.828 21.9801 12.828 21.9801 12.9829 21.5952C12.9796 21.5128 12.9762 21.4305 12.9728 21.3456C12.9303 19.7086 15.0382 17.8199 16.0865 16.7138C17.411 15.3474 18.9183 14.0767 20.5607 13.1098ZM15.1341 20.3515C15.0865 20.4151 15.0389 20.4788 14.9899 20.5444C14.6365 21.0272 14.6365 21.0272 14.5005 21.5985C14.7792 22.0825 15.1584 22.3144 15.634 22.5726C15.6969 22.608 15.7599 22.6434 15.8248 22.6799C15.9785 22.7661 16.133 22.8509 16.2876 22.9355C16.573 22.4754 16.8335 22.015 17.0674 21.5265C17.7099 20.3114 18.6506 19.586 19.7371 18.7817C20.4869 18.2266 21.1807 17.6407 21.8498 16.9888C23.1845 15.7151 24.49 15.1534 26.2428 14.6263C27.0698 14.3764 27.859 14.0876 28.6485 13.7333C30.2534 13.0199 31.6276 12.9292 33.3763 13.0693C33.4628 12.6579 33.4842 12.2536 33.4882 11.8345C33.4902 11.6819 33.4902 11.6819 33.4922 11.5263C33.4239 11.129 33.3138 10.954 33.0143 10.684C32.7233 10.6513 32.5166 10.6512 32.232 10.6845C32.1553 10.6915 32.0785 10.6985 31.9994 10.7058C31.7557 10.7297 31.513 10.7586 31.27 10.7887C31.1944 10.7974 31.1188 10.8061 31.041 10.8151C24.6594 11.5728 18.9218 15.2368 15.1341 20.3515ZM22.4946 18.4022C21.7703 19.1124 20.9816 19.7102 20.1583 20.2995C19.314 20.9173 18.6924 21.6163 18.2177 22.5543C18.1493 22.6863 18.1493 22.6863 18.0795 22.8209C17.9465 23.13 17.8615 23.4383 17.7816 23.7649C19.3906 24.7315 19.3906 24.7315 21.0169 25.6686C21.0798 25.7042 21.1428 25.7398 21.2077 25.7765C21.5302 25.9586 21.853 26.14 22.1766 26.3202C22.4668 26.4818 22.7561 26.6449 23.045 26.8086C23.2159 26.9049 23.3875 26.9999 23.559 27.0948C23.7165 27.1843 23.7165 27.1843 23.8771 27.2756C23.9713 27.3283 24.0655 27.3811 24.1625 27.4354C24.4362 27.6378 24.5565 27.8112 24.6953 28.1202C24.6676 28.4809 24.6054 28.608 24.3312 28.845C23.9587 28.9776 23.7319 28.9118 23.3775 28.7683C22.9879 28.5614 22.6135 28.3317 22.2378 28.1009C22.0207 27.9695 21.8035 27.8383 21.5863 27.7073C21.4807 27.6434 21.3752 27.5796 21.2664 27.5138C20.8912 27.2886 20.5124 27.071 20.1308 26.857C20.0676 26.8214 20.0043 26.7859 19.9391 26.7493C19.8038 26.6733 19.6684 26.5973 19.5331 26.5213C19.025 26.2347 18.519 25.9444 18.0127 25.6547C17.9068 25.5942 17.8008 25.5336 17.6917 25.4712C17.4408 25.3278 17.19 25.1843 16.9392 25.0408C15.7709 26.6091 15.301 27.9241 15.1122 29.8743C15.0208 30.772 14.8207 31.63 14.5748 32.4969C14.1953 33.9309 14.4115 35.0439 14.7364 36.4643C14.8049 36.7708 14.8717 37.0777 14.9366 37.385C14.9519 37.4576 14.9673 37.5302 14.9831 37.6051C15.1128 38.2475 15.1857 38.8924 15.2421 39.545C15.3202 40.4239 15.5582 41.0727 16.0075 41.8285C16.0548 41.9103 16.1021 41.9921 16.1508 42.0764C16.3919 42.488 16.6284 42.8307 16.9352 43.2034C22.0999 40.2215 27.2646 37.2397 32.5857 34.1675C32.2968 33.9402 32.0408 33.7546 31.7285 33.5711C31.6416 33.5198 31.5547 33.4686 31.4651 33.4159C31.3251 33.3341 31.3251 33.3341 31.1822 33.2507C31.085 33.1936 30.9878 33.1366 30.8877 33.0778C29.5351 32.2863 28.179 31.4985 26.8003 30.7532C26.5333 30.5943 26.3686 30.4469 26.2189 30.1732C26.1715 29.8834 26.1715 29.8834 26.2285 29.6037C26.4626 29.3327 26.5967 29.2336 26.9559 29.2038C27.3012 29.2403 27.4855 29.3344 27.7797 29.5162C27.8777 29.5759 27.9758 29.6356 28.0769 29.697C28.1803 29.7615 28.2837 29.826 28.3903 29.8924C28.6079 30.0251 28.8256 30.1576 29.0433 30.29C29.1494 30.3549 29.2555 30.4199 29.3649 30.4867C29.7467 30.7179 30.1334 30.9391 30.5231 31.1567C31.4823 31.6945 32.4306 32.2509 33.3794 32.807C33.4746 32.3001 33.4775 31.8262 33.4621 31.314C33.4433 30.5062 33.4395 29.6995 33.4452 28.8915C33.4519 27.8903 33.4513 26.8894 33.4455 25.8882C33.4393 24.7952 33.4394 23.7024 33.4456 22.6095C33.4515 21.5445 33.4514 20.4796 33.4501 19.4147C33.4496 18.9661 33.4498 18.5175 33.4511 18.0689C33.4517 17.8696 33.4521 17.6703 33.4524 17.4711C33.453 17.222 33.4537 16.9729 33.4548 16.7239C33.4558 16.0281 33.4347 15.3383 33.3833 14.6444C31.6085 14.3867 30.2686 14.5747 28.6238 15.3267C27.8157 15.6868 27.0126 15.9654 26.1598 16.1995C24.5982 16.6417 23.644 17.2606 22.4946 18.4022ZM12.8321 24.289C12.7882 24.3904 12.7882 24.3904 12.7434 24.4938C12.4351 25.2169 12.1684 25.954 11.9182 26.6989C11.897 26.7613 11.8757 26.8237 11.8539 26.888C9.99666 32.3821 10.3256 38.8058 12.8618 44.0368C13.1333 44.5768 13.1333 44.5768 13.5879 44.9487C14.0623 44.9691 14.3759 44.7287 14.769 44.4822C14.8473 44.435 14.9256 44.3877 15.0063 44.3391C15.199 44.2225 15.3907 44.1044 15.5817 43.9848C15.5391 43.9152 15.4965 43.8455 15.4526 43.7738C15.2918 43.5088 15.1327 43.2429 14.9746 42.9763C14.8735 42.8069 14.7706 42.6386 14.6676 42.4703C14.0275 41.3865 13.758 40.3245 13.6787 39.0771C13.6008 38.1173 13.4092 37.2024 13.1767 36.2689C12.9377 35.3001 12.7173 34.3279 12.8633 33.3299C12.8728 33.2645 12.8823 33.1991 12.8921 33.1317C12.9891 32.5218 13.1591 31.9348 13.3288 31.3419C13.5413 30.5743 13.6233 29.8096 13.6915 29.0182C13.8521 27.2136 14.4387 25.8263 15.5428 24.3806C15.2987 24.0908 15.0087 23.9289 14.6812 23.7431C14.579 23.6844 14.4769 23.6258 14.3716 23.5654C14.0417 23.386 14.0417 23.386 13.6843 23.3106C13.1872 23.4979 13.0259 23.822 12.8321 24.289ZM34.9414 11.9987C34.9002 12.573 34.9002 12.573 35.0848 13.0981C35.1985 13.0897 35.3122 13.0814 35.4293 13.0728C37.2696 12.9444 38.6952 13.1502 40.3669 13.9513C41.1825 14.3377 42.0112 14.6133 42.8902 14.8227C44.4333 15.1909 45.5479 15.992 46.6703 17.0826C46.792 17.2004 46.9138 17.318 47.0358 17.4355C47.0975 17.495 47.1592 17.5546 47.2228 17.6159C47.752 18.1154 48.3193 18.5404 48.9232 18.9457C50.0211 19.6957 50.7446 20.5686 51.3744 21.7266C51.4402 21.8445 51.5061 21.9623 51.5722 22.0799C51.7308 22.3637 51.8877 22.6483 52.0431 22.9338C52.3237 22.7849 52.6021 22.6322 52.8802 22.4787C52.9994 22.4155 52.9994 22.4155 53.1211 22.3511C53.5804 22.1024 53.5804 22.1024 53.8669 21.6816C53.9144 20.581 52.5574 19.355 51.8751 18.5903C48.9669 15.4267 45.4295 13.0246 41.3067 11.7618C41.1361 11.7033 40.9657 11.6443 40.7955 11.5846C39.6609 11.197 38.5024 10.98 37.3148 10.8307C37.2264 10.8191 37.138 10.8076 37.0469 10.7957C36.1676 10.6479 36.1676 10.6479 35.3054 10.7571C34.9268 11.0981 34.9676 11.5204 34.9414 11.9987ZM34.9584 14.6374C34.9589 14.7186 34.9594 14.7998 34.9599 14.8835C34.9688 16.4193 34.974 17.9548 34.9653 19.4906C34.9587 20.6817 34.9597 21.8728 34.9609 23.0639C34.9614 23.6759 34.9615 24.288 34.9617 24.9C34.9618 25.1443 34.9618 25.3887 34.9619 25.633C34.9624 27.0991 34.9624 27.0991 34.9625 27.4662C34.9626 27.7086 34.9627 27.951 34.9629 28.1934C34.9633 28.7656 34.9632 29.3377 34.9614 29.9099C34.9605 30.1799 34.96 30.4499 34.9594 30.72C34.959 30.9104 34.9581 31.1008 34.9572 31.2913C34.957 31.4068 34.9568 31.5223 34.9565 31.6412C34.9562 31.7427 34.9558 31.8442 34.9555 31.9487C34.9638 32.222 34.9979 32.4811 35.0391 32.7511C35.1061 32.7127 35.1732 32.6744 35.2423 32.6349C36.8729 31.7026 38.5041 30.7712 40.1359 29.8409C40.925 29.391 41.7139 28.9407 42.5024 28.4897C43.1895 28.0968 43.8769 27.7044 44.5647 27.3127C44.9291 27.1052 45.2932 26.8974 45.657 26.6889C45.9992 26.4928 46.3418 26.2975 46.6848 26.1027C46.8107 26.031 46.9365 25.959 47.0622 25.8867C47.2334 25.7882 47.4053 25.6909 47.5772 25.5936C47.6733 25.5387 47.7694 25.4839 47.8684 25.4273C48.1159 25.314 48.1159 25.314 48.4674 25.3366C48.7076 25.5895 48.8731 25.7743 48.9411 26.1206C48.92 26.3161 48.92 26.3161 48.7997 26.4983C48.6466 26.6002 48.4902 26.697 48.3323 26.7913C48.2334 26.8507 48.1345 26.9101 48.0325 26.9712C47.8713 27.0672 47.8713 27.0672 47.7068 27.165C47.5973 27.2306 47.4877 27.2962 47.3749 27.3637C47.0836 27.5382 46.792 27.7121 46.5003 27.8859C46.2028 28.0633 45.9056 28.2412 45.6083 28.4191C45.0249 28.7681 44.4412 29.1165 43.8573 29.4646C44.1642 30.016 44.4738 30.5659 44.7852 31.1147C44.8908 31.3016 44.9958 31.4888 45.1002 31.6763C45.2504 31.946 45.4028 32.2144 45.5557 32.4826C45.6018 32.5666 45.6479 32.6505 45.6955 32.737C45.9065 33.1027 46.0335 33.3165 46.4075 33.5267C46.7914 33.6051 47.0142 33.5595 47.3765 33.411C47.6978 33.0701 47.8859 32.8059 47.8806 32.3304C47.8111 31.991 47.6801 31.753 47.5185 31.4468C47.2668 30.9332 47.079 30.4988 47.1671 29.9224C47.4594 29.1798 47.9061 28.8472 48.6148 28.5226C49.1907 28.366 49.6041 28.4757 50.1165 28.7616C50.4948 29.0516 50.7397 29.4432 50.9782 29.8501C51.0343 29.9453 51.0904 30.0405 51.1483 30.1385C51.2078 30.2402 51.2673 30.3419 51.3287 30.4467C51.4563 30.6623 51.584 30.8779 51.7117 31.0934C51.9123 31.4328 52.1127 31.7723 52.3119 32.1125C52.5045 32.4412 52.6991 32.7688 52.8937 33.0963C52.9829 33.2499 52.9829 33.2499 53.0739 33.4066C53.1301 33.5007 53.1863 33.5948 53.2442 33.6917C53.2931 33.7749 53.3421 33.8581 53.3925 33.9438C53.5716 34.1652 53.6687 34.2063 53.9473 34.242C54.1531 34.2366 54.1531 34.2366 54.3345 34.1313C54.5092 33.9001 54.5092 33.9001 54.611 33.6333C54.5544 33.3565 54.4938 33.2102 54.3563 32.971C54.3151 32.8989 54.2739 32.8269 54.2315 32.7526C54.1861 32.6741 54.1407 32.5955 54.0939 32.5146C54.0463 32.4314 53.9987 32.3483 53.9497 32.2626C53.8462 32.082 53.7425 31.9014 53.6387 31.7209C53.4747 31.4355 53.3115 31.1496 53.1484 30.8636C52.6849 30.0505 52.2209 29.2375 51.7542 28.4261C51.4689 27.93 51.1853 27.433 50.9027 26.9353C50.7945 26.7456 50.6857 26.5562 50.5763 26.3671C50.4236 26.1031 50.273 25.8379 50.1229 25.5725C50.077 25.4942 50.031 25.4159 49.9837 25.3353C49.6865 24.8026 49.6865 24.8026 49.7581 24.4712C49.9176 24.2541 50.0792 24.1233 50.303 23.9737C50.3753 23.9246 50.4475 23.8754 50.522 23.8248C50.6049 23.7706 50.6049 23.7706 50.6896 23.7153C50.3032 22.4871 49.5364 21.2216 48.4821 20.4779C48.2093 20.2814 47.9379 20.083 47.6669 19.884C47.5915 19.8292 47.5161 19.7744 47.4385 19.7179C46.6654 19.1434 45.9721 18.4885 45.2842 17.8166C44.5775 17.1389 43.895 16.7379 42.961 16.4465C42.854 16.4128 42.747 16.379 42.6367 16.3442C42.3503 16.2612 42.0639 16.1919 41.7737 16.1239C41.1755 15.9698 40.6283 15.7257 40.0662 15.4742C38.2676 14.6699 36.9134 14.4361 34.9584 14.6374ZM14.5315 46.5831C14.5152 47.8773 16.375 49.5449 17.2033 50.4134C21.2439 54.5254 26.9746 57.4366 32.8113 57.6118C33.1095 57.5336 33.1095 57.5336 33.3189 57.3187C33.4965 56.7178 33.505 56.0517 33.468 55.4279C33.4196 55.3441 33.3713 55.2604 33.3214 55.1741C33.2635 55.1799 33.2056 55.1856 33.1459 55.1916C31.1277 55.3817 29.6712 55.0728 27.8217 54.2323C27.0269 53.8751 26.214 53.6198 25.3683 53.414C23.7794 52.9898 22.7002 52.1247 21.5429 51.0066C21.4822 50.948 21.4216 50.8895 21.3591 50.8291C21.2981 50.7701 21.2371 50.711 21.1743 50.6502C20.6487 50.1518 20.084 49.7298 19.483 49.3264C18.3852 48.5764 17.6616 47.7036 17.0319 46.5455C16.9661 46.4277 16.9002 46.3099 16.8341 46.1923C16.6755 45.9085 16.5186 45.6239 16.3631 45.3384C16.0825 45.4873 15.8042 45.64 15.5261 45.7935C15.4466 45.8356 15.3671 45.8777 15.2852 45.9211C14.829 46.1708 14.829 46.1708 14.5315 46.5831ZM17.7167 44.5569C18.1803 45.7945 18.8326 47.0174 19.9242 47.7943C20.1968 47.991 20.4683 48.1893 20.7394 48.3881C20.8148 48.443 20.8901 48.4978 20.9678 48.5543C21.7408 49.1288 22.4342 49.7837 23.1221 50.4556C23.826 51.1305 24.5067 51.5327 25.4369 51.8234C25.5436 51.8571 25.6503 51.8907 25.7602 51.9254C26.0743 52.0163 26.3895 52.0925 26.7076 52.1684C27.3998 52.3475 28.0256 52.6384 28.6734 52.9372C30.3327 53.6991 31.6503 53.8199 33.4479 53.6348C33.4478 53.5246 33.4478 53.5246 33.4478 53.4121C33.4439 41.173 33.4439 41.173 33.4438 40.8059C33.4437 40.5636 33.4435 40.3212 33.4434 40.0788C33.443 39.5066 33.4431 38.9345 33.4449 38.3623C33.4457 38.0923 33.4463 37.8222 33.4468 37.5522C33.4473 37.3618 33.4482 37.1713 33.4491 36.9809C33.4493 36.8654 33.4495 36.7499 33.4497 36.6309C33.4501 36.5295 33.4504 36.428 33.4508 36.3235C33.4463 36.0006 33.4463 36.0006 33.3672 35.5211C28.2025 38.5029 23.0379 41.4847 17.7167 44.5569ZM34.9423 35.5141C34.9441 35.6199 34.9441 35.6199 34.9459 35.7279C34.9707 37.2649 34.9808 38.8006 34.9708 40.3377C34.9662 41.0516 34.9659 41.7655 34.9665 42.4794C34.9666 42.6012 34.9667 42.723 34.9668 42.8484C34.967 43.0953 34.9672 43.3422 34.9675 43.5891C34.968 44.2011 34.9681 44.8131 34.9683 45.4252C34.9683 45.6695 34.9684 45.9139 34.9685 46.1582C34.969 47.6243 34.969 47.6243 34.9691 47.9913C34.9692 48.234 34.9693 48.4767 34.9694 48.7193C34.9698 49.2882 34.9698 49.8571 34.9685 50.426C34.9681 50.6271 34.9678 50.8282 34.9675 51.0293C34.9671 51.2814 34.9666 51.5335 34.9657 51.7855C34.965 52.4023 34.9777 53.0126 35.023 53.6277C35.95 53.7385 36.8264 53.8133 37.7588 53.7225C38.004 53.7114 38.004 53.7114 38.1863 53.8318C38.5316 54.3406 38.5316 54.3406 38.5193 54.6406C38.3931 54.8761 38.2616 54.9933 38.0467 55.1531C37.0734 55.4323 36.023 55.292 35.03 55.2029C34.9575 55.6222 34.9227 56.0197 34.9295 56.4452C34.9307 56.5998 34.9307 56.5998 34.9318 56.7576C34.9682 57.0682 35.0091 57.2282 35.2097 57.4678C35.6844 57.6847 36.1818 57.6003 36.686 57.5461C36.7789 57.5361 36.8718 57.5262 36.9675 57.516C43.2642 56.7785 48.9022 53.4592 52.8356 48.5322C53.0482 48.255 53.2541 47.9739 53.4551 47.6881C53.4989 47.6262 53.5427 47.5642 53.5878 47.5004C53.7911 47.2012 53.882 47.0422 53.9057 46.6737C53.6058 46.1965 53.2537 45.961 52.7723 45.6996C52.7093 45.6641 52.6464 45.6287 52.5815 45.5923C52.4278 45.5061 52.2733 45.4212 52.1187 45.3367C51.8296 45.8026 51.5635 46.2714 51.3208 46.7632C50.7456 47.8767 49.8622 48.6308 48.8606 49.3539C48.0473 49.9411 47.3051 50.5615 46.5851 51.2598C45.0306 52.7388 42.9915 53.7214 40.8364 53.9956C40.6466 53.9904 40.6466 53.9904 40.4643 53.8701C40.1134 53.353 40.1135 53.353 40.147 53.072C40.2985 52.7156 40.6539 52.5864 40.9911 52.438C41.3898 52.3019 41.7944 52.1908 42.2003 52.0782C43.763 51.6148 44.7531 51.0162 45.9071 49.8728C46.6377 49.1584 47.4323 48.5546 48.2585 47.9567C49.4704 47.0662 50.1213 45.9745 50.6735 44.5919C49.8727 44.0431 49.0553 43.5466 48.2083 43.0732C47.6375 42.754 47.0717 42.4263 46.5057 42.0986C46.3977 42.0361 46.2898 41.9737 46.1785 41.9093C45.9569 41.7811 45.7352 41.6528 45.5136 41.5245C44.9802 41.2158 44.4466 40.9076 43.9129 40.5994C43.7014 40.4771 43.4898 40.3549 43.2782 40.2326C43.1211 40.1419 43.1211 40.1419 42.9609 40.0493C40.3162 38.5213 37.6716 36.9932 35.0269 35.4652C34.999 35.4813 34.9711 35.4975 34.9423 35.5141Z" fill="white"/>
<path d="M29.3 44.2283C30.1964 44.2974 31.1613 44.6083 31.8199 45.2418C32.5924 46.1696 33.05 47.2073 32.9522 48.4293C32.7843 49.456 32.2462 50.2941 31.4488 50.9539C30.465 51.6179 29.467 51.7614 28.3145 51.5686C27.4213 51.3729 26.7103 50.8776 26.2065 50.1191C25.6367 49.1618 25.3511 48.2922 25.5737 47.1763C25.63 47.0077 25.63 47.0077 25.6873 46.8358C25.709 46.7675 25.7306 46.6991 25.7529 46.6288C26.2948 45.1365 27.7283 44.2053 29.3 44.2283ZM27.1422 47.3776C26.992 48.0852 27.1054 48.6312 27.4874 49.2386C27.9154 49.7905 28.4652 49.9901 29.1411 50.0965C29.7461 50.1423 30.1715 49.9279 30.6301 49.5611C31.1545 49.0854 31.2677 48.5306 31.3502 47.8526C31.361 47.3325 31.0937 46.8926 30.7868 46.4859C30.2924 46.0377 29.7383 45.8408 29.0723 45.812C28.1259 45.9613 27.4297 46.4369 27.1422 47.3776Z" fill="white"/>
<path d="M23.9429 30.0615C25.0409 30.1672 25.9756 30.6158 26.6966 31.4533C27.3377 32.2696 27.5703 33.209 27.521 34.2396C27.3898 35.2945 26.9317 36.0416 26.1187 36.7033C25.2175 37.3634 24.3684 37.6328 23.247 37.5294C22.3383 37.3494 21.5964 36.9049 20.949 36.2477C20.8974 36.1705 20.8458 36.0933 20.7927 36.0137C20.7568 35.9636 20.7209 35.9135 20.6839 35.8619C20.1806 35.096 19.9552 34.124 20.1173 33.2198C20.5679 31.3538 21.9514 30.0785 23.9429 30.0615ZM21.6776 33.5954C21.6474 34.2527 21.7851 34.735 22.1945 35.2577C22.6174 35.6726 23.1153 35.8698 23.6921 35.9682C24.3618 35.9335 24.8611 35.7781 25.3453 35.3028C25.8014 34.7919 25.9445 34.2838 25.9436 33.6038C25.87 33.0303 25.6513 32.6082 25.2467 32.2014C24.6779 31.7908 24.0765 31.6011 23.3738 31.6683C22.4262 31.9688 21.8069 32.5875 21.6776 33.5954Z" fill="white"/>
<path d="M24.8504 18.57C25.9671 18.8425 26.75 19.376 27.3588 20.3506C27.8606 21.2504 27.9868 22.146 27.7568 23.1522C27.4054 24.2889 26.8327 25.0132 25.7913 25.5938C24.9341 26.0015 23.8966 26.0909 22.9871 25.8073C21.8023 25.3309 21.1278 24.5074 20.6038 23.3764C20.2646 22.3324 20.3991 21.4151 20.8846 20.4477C21.6924 19.0312 23.2511 18.2826 24.8504 18.57ZM22.0679 21.8684C21.9241 22.5345 22.1467 23.0188 22.4905 23.575C22.6902 23.8459 22.8871 23.9916 23.188 24.1404C23.3247 24.208 23.3247 24.208 23.4642 24.277C24.093 24.4638 24.6471 24.3966 25.2325 24.1161C25.833 23.7139 26.1288 23.2719 26.2849 22.5643C26.3747 21.9383 26.2204 21.4658 25.8922 20.9422C25.497 20.434 24.9863 20.202 24.3576 20.1098C23.1421 20.0656 22.4056 20.7413 22.0679 21.8684Z" fill="white"/>
<path d="M40.0663 43.7655C41.0231 43.9656 41.8418 44.449 42.4024 45.2689C43.0188 46.2985 43.2114 47.2221 42.9427 48.4012C42.6329 49.4613 41.9835 50.223 41.0234 50.7584C40.0585 51.1997 39.1347 51.2567 38.1289 50.946C37.1789 50.5829 36.4365 49.9347 35.9966 49.0188C35.6219 48.1112 35.4864 47.1325 35.8021 46.1847C36.5966 44.4623 38.1474 43.4632 40.0663 43.7655ZM37.3255 46.6376C37.1433 47.3176 37.1815 47.8196 37.5152 48.4315C37.8868 49.0593 38.2508 49.3398 38.9491 49.5353C39.6275 49.5821 40.1911 49.5012 40.7464 49.0828C41.2554 48.5589 41.4581 48.0097 41.5138 47.2861C41.47 46.7159 41.2403 46.2383 40.8317 45.8413C40.2992 45.416 39.7733 45.2267 39.09 45.2981C38.2486 45.4532 37.7166 45.8766 37.3255 46.6376Z" fill="white"/>
<path d="M43.987 18.8713C45.1406 19.0781 46.0197 19.5463 46.7195 20.5049C47.2523 21.3621 47.4807 22.3193 47.2907 23.3167C47.0249 24.3292 46.4915 25.1638 45.6106 25.7487C44.6864 26.2674 43.6516 26.4433 42.6113 26.2135C41.5794 25.8698 40.8579 25.2154 40.3081 24.2947C39.8553 23.3813 39.765 22.4311 40.0637 21.4537C40.6797 19.8219 42.1827 18.7024 43.987 18.8713ZM41.4916 22.2296C41.4638 22.8947 41.5473 23.4853 41.9931 24.0017C42.5442 24.5355 43.0654 24.7405 43.836 24.7394C44.408 24.666 44.8382 24.4537 45.2384 24.0425C45.6433 23.4598 45.8084 22.8814 45.7389 22.1744C45.5863 21.5381 45.2704 21.1128 44.7348 20.748C44.2384 20.487 43.7207 20.4097 43.1656 20.4524C42.3052 20.7551 41.7019 21.3073 41.4916 22.2296Z" fill="white"/>
<path d="M46.4914 42.9668C47.1168 43.1419 47.5982 43.4638 47.9672 44.0036C48.3358 44.662 48.4127 45.2774 48.2194 46.0086C47.935 46.6712 47.5077 47.0631 46.8563 47.3596C46.2287 47.5644 45.6362 47.4943 45.0143 47.2951C44.4097 46.9751 44.0981 46.4485 43.8325 45.8343C43.6578 45.1786 43.8358 44.5817 44.115 43.9792C44.6608 43.1678 45.5573 42.9024 46.4914 42.9668ZM45.4069 44.9958C45.3043 45.3045 45.3043 45.3045 45.4262 45.5909C45.6137 45.8385 45.6137 45.8385 45.9297 45.9136C46.242 45.9349 46.242 45.9349 46.463 45.7749C46.6334 45.5603 46.7099 45.4533 46.7254 45.1792C46.5911 44.8388 46.5068 44.7042 46.1683 44.5562C45.7591 44.5144 45.6038 44.6466 45.4069 44.9958Z" fill="white"/>
<path d="M38.07 24.8256C38.7543 24.8928 39.2579 25.1513 39.7329 25.6421C40.142 26.1585 40.3094 26.702 40.2736 27.3602C40.1334 28.0292 39.9087 28.5277 39.3482 28.9374C38.7652 29.3147 38.1916 29.4836 37.4994 29.3518C36.8468 29.151 36.408 28.8038 36.0059 28.2591C35.7089 27.6836 35.6041 27.0249 35.7931 26.401C36.1959 25.4625 37.0236 24.8177 38.07 24.8256ZM37.2795 27.0585C37.3056 27.3645 37.3056 27.3645 37.488 27.6149C37.8007 27.7821 37.8007 27.7821 38.1552 27.7937C38.4615 27.6249 38.5818 27.5098 38.6954 27.1787C38.6631 26.8318 38.5549 26.7002 38.2947 26.4724C37.7117 26.3949 37.504 26.5149 37.2795 27.0585Z" fill="white"/>
<path d="M38.671 15.9904C39.2543 16.0892 39.7052 16.4251 40.0804 16.8686C40.4618 17.4438 40.6041 17.9626 40.5234 18.6493C40.3951 19.2059 40.1378 19.7167 39.6583 20.045C39.5744 20.1051 39.4904 20.1652 39.404 20.2271C38.7688 20.5275 38.1744 20.6167 37.4972 20.4045C36.7799 20.1146 36.3937 19.649 36.0912 18.9461C35.8957 18.2445 36.0152 17.6561 36.3249 17.0065C36.862 16.193 37.7358 15.9262 38.671 15.9904ZM37.6359 18.0684C37.5565 18.4174 37.5565 18.4174 37.7387 18.6859C37.9539 18.8877 37.9539 18.8877 38.2063 18.9587C38.5532 18.9264 38.6849 18.8181 38.9126 18.558C38.9942 18.2752 38.9942 18.2752 38.9222 17.9885C38.724 17.7404 38.724 17.7404 38.46 17.5786C37.9831 17.5478 37.8235 17.625 37.6359 18.0684Z" fill="white"/>
<path d="M18.4507 36.8651C19.0899 36.9395 19.6345 37.1898 20.0613 37.6765C20.4395 38.2181 20.6044 38.7292 20.602 39.3947C20.4733 40.0644 20.2337 40.5646 19.6766 40.9719C19.0764 41.3604 18.5006 41.5234 17.7917 41.3741C17.0667 41.1502 16.624 40.8139 16.2625 40.1442C16.0291 39.5883 15.9458 39.0181 16.1215 38.4354C16.5366 37.4682 17.3782 36.8408 18.4507 36.8651ZM17.6079 39.093C17.634 39.399 17.634 39.399 17.8164 39.6494C18.1291 39.8166 18.1291 39.8166 18.4836 39.8282C18.7899 39.6594 18.9102 39.5442 19.0238 39.2131C18.9915 38.8663 18.8833 38.7346 18.6231 38.5069C18.0401 38.4294 17.8323 38.5494 17.6079 39.093Z" fill="white"/>
<path d="M30.0759 24.851C30.7152 24.8599 31.2865 25.0794 31.7592 25.5076C32.2014 26.1099 32.5527 26.7166 32.4465 27.4795C32.3033 28.0832 32.0914 28.5447 31.5804 28.9198C30.9101 29.3176 30.3981 29.5598 29.622 29.3755C28.8335 29.1242 28.4797 28.7106 28.0838 27.9935C27.7896 27.3491 27.8596 26.83 28.1001 26.1794C28.4661 25.4568 29.2685 24.9327 30.0759 24.851ZM29.5197 26.9768C29.4722 27.2809 29.4722 27.2809 29.6889 27.563C29.9052 27.8239 29.9052 27.8239 30.1946 27.8773C30.6117 27.6888 30.6117 27.6888 30.8958 27.3456C30.8932 27.0301 30.7943 26.8737 30.601 26.6275C30.2969 26.4882 30.1494 26.4567 29.8314 26.5642C29.6282 26.7221 29.6282 26.7221 29.5197 26.9768Z" fill="white"/>
<path d="M38.2985 38.201C38.9924 38.3911 39.401 38.687 39.768 39.3054C40.0919 39.8921 40.2124 40.332 40.0641 40.9881C39.8328 41.7331 39.4142 42.1312 38.7373 42.5014C38.1079 42.7641 37.5109 42.7578 36.8826 42.5011C36.2192 42.1844 35.9271 41.6362 35.6211 40.9876C35.4568 40.3748 35.6 39.8288 35.8679 39.266C36.3759 38.4236 37.3411 38.0333 38.2985 38.201ZM37.1569 40.3265C37.1 40.4833 37.1 40.4833 37.2321 40.7131C37.3953 40.9819 37.3953 40.9819 37.6655 41.0974C37.9665 41.1375 37.9665 41.1375 38.2516 40.9282C38.5288 40.6991 38.5288 40.6991 38.514 40.3326C38.3499 39.9587 38.3499 39.9587 38.0267 39.7327C37.5086 39.695 37.3719 39.8635 37.1569 40.3265Z" fill="white"/>
<path d="M18.1608 26.7042C18.8038 26.6944 19.3521 26.891 19.8333 27.3177C20.2625 27.9359 20.6298 28.5186 20.5206 29.2896C20.3508 30.0588 20.0676 30.5055 19.4293 30.9771C18.6835 31.3122 18.0578 31.3353 17.2936 31.051C16.637 30.72 16.3037 30.182 16.0264 29.5156C15.91 28.8446 16.0153 28.304 16.3642 27.7234C16.7909 27.1224 17.4318 26.7769 18.1608 26.7042ZM17.5754 29.0725C17.6584 29.3629 17.6584 29.3629 17.8684 29.5801C18.169 29.6966 18.169 29.6966 18.4868 29.6743C18.7283 29.527 18.8297 29.4073 18.9563 29.1565C18.9743 28.8366 18.8704 28.6863 18.6751 28.4375C18.371 28.2983 18.2235 28.2668 17.9055 28.3743C17.6533 28.596 17.6068 28.7395 17.5754 29.0725Z" fill="white"/>
<path d="M28.9028 38.6557C29.5747 38.6479 30.1254 38.9218 30.622 39.3621C31.0901 40.0374 31.2828 40.5767 31.218 41.4079C31.0218 42.14 30.7155 42.4951 30.0713 42.9018C29.4441 43.2384 29.0061 43.2926 28.3275 43.1089C27.7 42.8982 27.3159 42.6018 26.9747 42.0319C26.7068 41.4278 26.6079 40.8749 26.8319 40.2346C27.2058 39.3207 27.893 38.7649 28.9028 38.6557ZM28.2663 40.9477C28.3981 41.2602 28.4982 41.4732 28.7927 41.6519C29.1372 41.6444 29.3303 41.51 29.6007 41.3053C29.7152 41.0766 29.7152 41.0766 29.6591 40.8204C29.4829 40.5138 29.4829 40.5138 29.2326 40.277C28.715 40.2437 28.3712 40.4111 28.2663 40.9477Z" fill="white"/>
<path d="M22.6719 43.4938C23.3438 43.486 23.8945 43.7599 24.391 44.2002C24.8143 44.789 25.0762 45.3526 25.0295 46.0876C24.8994 46.6914 24.6696 47.1562 24.1634 47.5279C23.4945 47.9248 22.9779 48.1731 22.2032 47.9806C21.495 47.7489 21.078 47.4266 20.6949 46.7854C20.4258 46.1657 20.4168 45.5742 20.6329 44.9318C21.004 44.0863 21.7552 43.5952 22.6719 43.4938ZM22.0504 45.5798C22.0327 45.8227 22.0363 45.954 22.1462 46.1731C22.3529 46.3068 22.5387 46.4213 22.7776 46.4853C23.0969 46.3454 23.2532 46.2542 23.4151 45.941C23.4552 45.6399 23.4552 45.6399 23.2459 45.3549C23.0168 45.0777 23.0168 45.0777 22.6503 45.0925C22.2764 45.2566 22.2764 45.2566 22.0504 45.5798Z" fill="white"/>
<path d="M31.0237 15.4428C31.7177 15.6329 32.1263 15.9288 32.4932 16.5472C32.8171 17.1339 32.9376 17.5738 32.7893 18.2299C32.5579 18.9754 32.1391 19.3709 31.4638 19.7438C30.9138 19.971 30.3608 19.9814 29.7885 19.836C29.0611 19.4288 28.6805 19.0047 28.3463 18.2294C28.1889 17.6135 28.3241 17.0729 28.5931 16.5078C29.1012 15.6654 30.0663 15.2751 31.0237 15.4428ZM29.8821 17.5683C29.8252 17.7251 29.8252 17.7251 29.9573 17.9549C30.1206 18.2237 30.1206 18.2237 30.3907 18.3392C30.6918 18.3793 30.6918 18.3793 30.9768 18.17C31.254 17.9408 31.254 17.9408 31.2392 17.5743C31.0751 17.2005 31.0751 17.2005 30.7519 16.9745C30.2338 16.9368 30.0971 17.1053 29.8821 17.5683Z" fill="white"/>
</g>
</svg>
