<svg width="19" height="19" viewBox="0 0 19 19" fill="none" xmlns="http://www.w3.org/2000/svg">
<g clip-path="url(#clip0_2221_47)">
<path d="M2.28564 7.62729C2.28564 8.327 2.42346 9.01986 2.69123 9.66631C2.959 10.3128 3.35147 10.9001 3.84624 11.3949C4.34101 11.8897 4.92839 12.2821 5.57484 12.5499C6.22129 12.8177 6.91415 12.9555 7.61386 12.9555C8.31357 12.9555 9.00643 12.8177 9.65288 12.5499C10.2993 12.2821 10.8867 11.8897 11.3815 11.3949C11.8762 10.9001 12.2687 10.3128 12.5365 9.66631C12.8043 9.01986 12.9421 8.327 12.9421 7.62729C12.9421 6.92758 12.8043 6.23472 12.5365 5.58827C12.2687 4.94182 11.8762 4.35444 11.3815 3.85967C10.8867 3.3649 10.2993 2.97243 9.65288 2.70466C9.00643 2.43689 8.31357 2.29907 7.61386 2.29907C6.91415 2.29907 6.22129 2.43689 5.57484 2.70466C4.92839 2.97243 4.34101 3.3649 3.84624 3.85967C3.35147 4.35444 2.959 4.94182 2.69123 5.58827C2.42346 6.23472 2.28564 6.92758 2.28564 7.62729Z" stroke="#727272" stroke-width="2.0298" stroke-linecap="round" stroke-linejoin="round"/>
<path d="M15.9867 16.0001L11.4197 11.4331" stroke="#727272" stroke-width="2.0298" stroke-linecap="round" stroke-linejoin="round"/>
</g>
<defs>
<clipPath id="clip0_2221_47">
<rect width="18.2682" height="18.2682" fill="white" transform="translate(0.00219727 0.015625)"/>
</clipPath>
</defs>
</svg>
