<svg width="9" height="10" viewBox="0 0 9 10" fill="none" xmlns="http://www.w3.org/2000/svg">
<g clip-path="url(#clip0_2260_48)">
<mask id="mask0_2260_48" style="mask-type:luminance" maskUnits="userSpaceOnUse" x="0" y="0" width="9" height="10">
<path d="M9 0.546509H0V9.75581H9V0.546509Z" fill="white"/>
</mask>
<g mask="url(#mask0_2260_48)">
<path d="M4.27524 0.543007C4.29185 0.54288 4.30846 0.542753 4.32557 0.542622C5.01204 0.538564 5.01204 0.538564 5.3083 0.600622C5.32582 0.6041 5.34334 0.607578 5.36139 0.611161C6.21219 0.783182 6.98904 1.18641 7.61103 1.80574C7.62868 1.8231 7.62868 1.8231 7.64668 1.84081C7.80378 1.99576 7.95147 2.15241 8.08083 2.33243C8.10362 2.36388 8.127 2.39478 8.15053 2.42566C8.28877 2.60939 8.40101 2.80648 8.50752 3.01087C8.51918 3.03318 8.51918 3.03318 8.53108 3.05595C8.73352 3.44992 8.86836 3.88684 8.94697 4.32391C8.9498 4.33831 8.95263 4.35271 8.95554 4.36755C9.05208 4.87259 9.04776 5.47489 8.94697 5.97871C8.94357 5.99663 8.94017 6.01456 8.93667 6.03303C8.79396 6.77209 8.48864 7.4393 8.03291 8.02922C8.01863 8.04788 8.00436 8.06655 7.98965 8.08578C7.76685 8.3659 7.51085 8.62733 7.22432 8.83863C7.20518 8.85331 7.18607 8.86802 7.16698 8.88275C6.61841 9.30095 5.97999 9.57551 5.3083 9.702C5.29423 9.70489 5.28015 9.70778 5.26565 9.71076C4.77229 9.80951 4.18327 9.80541 3.69111 9.702C3.67331 9.69843 3.65551 9.69485 3.63718 9.69117C3.05019 9.57106 2.45642 9.34407 1.96846 8.98252C1.95775 8.9746 1.94704 8.96667 1.93601 8.9585C1.852 8.89597 1.76922 8.83193 1.68721 8.76668C1.67768 8.75911 1.66815 8.75155 1.65833 8.74376C1.38323 8.52247 1.12261 8.2594 0.917446 7.96903C0.895239 7.93796 0.872288 7.90759 0.849151 7.87724C0.449368 7.34645 0.196394 6.69936 0.0656195 6.04616C0.0616364 6.02646 0.0616364 6.02646 0.0575729 6.00636C0.00427384 5.72407 -0.00685887 5.44486 -0.00579169 5.15805C-0.0057538 5.13974 -0.00571592 5.12142 -0.00567689 5.10255C-0.0048032 4.83951 0.000719611 4.58242 0.0524359 4.32391C0.0575342 4.29702 0.0575342 4.29702 0.0627356 4.26959C0.196833 3.57515 0.473035 2.92486 0.896186 2.36334C0.913147 2.3408 0.913147 2.3408 0.93045 2.31781C1.17803 1.99529 1.46531 1.68434 1.79267 1.44601C1.80353 1.43798 1.81439 1.42996 1.82557 1.4217C2.53139 0.902375 3.39718 0.547492 4.27524 0.543007ZM1.6847 2.28973C1.57796 2.39794 1.47978 2.51093 1.38838 2.63314C1.38082 2.6432 1.37325 2.65325 1.36546 2.66362C1.24366 2.82646 1.13557 2.99438 1.03682 3.17275C1.03082 3.1834 1.02482 3.19405 1.01864 3.20502C0.794969 3.60417 0.651547 4.05055 0.57978 4.50378C0.57665 4.52297 0.57352 4.54216 0.570295 4.56193C0.541787 4.7545 0.537609 4.9445 0.538032 5.13894C0.538041 5.15553 0.538051 5.17212 0.538061 5.18922C0.540777 6.21759 0.928642 7.16465 1.60371 7.92017C1.61242 7.92996 1.62113 7.93974 1.6301 7.94982C1.68081 8.0058 1.73322 8.05509 1.79267 8.10116C1.79632 8.09152 1.79997 8.08187 1.80373 8.07193C1.97257 7.63243 2.16634 7.24462 2.48985 6.90297C2.51014 6.88148 2.53009 6.85967 2.54998 6.83779C2.7854 6.58472 3.08754 6.41592 3.39228 6.2665C3.37179 6.2036 3.35556 6.19347 3.30439 6.1552C2.94638 5.87683 2.72216 5.51073 2.60566 5.067C2.60195 5.05289 2.59824 5.03879 2.59442 5.02426C2.46678 4.5142 2.57134 3.96353 2.82978 3.5145C2.87865 3.43891 2.93138 3.36832 2.98799 3.29866C3.00045 3.28317 3.01291 3.26768 3.02575 3.25172C3.34692 2.86969 3.81391 2.62132 4.30635 2.57918C4.8827 2.54889 5.40048 2.70738 5.83564 3.10305C6.19753 3.44358 6.42837 3.93076 6.45278 4.43515C6.46663 4.971 6.33011 5.45511 5.99385 5.87079C5.98161 5.88625 5.96937 5.90172 5.95677 5.91765C5.87402 6.01731 5.78356 6.09642 5.68034 6.17257C5.65539 6.19114 5.63118 6.21075 5.60713 6.23052C5.60713 6.2424 5.60713 6.25427 5.60713 6.2665C5.62417 6.2748 5.64121 6.2831 5.65876 6.29165C5.93885 6.43015 6.1876 6.58873 6.41572 6.80611C6.42506 6.81497 6.43439 6.82383 6.44401 6.83295C6.79371 7.16853 7.05737 7.61071 7.18916 8.08318C7.24434 8.08899 7.24434 8.08899 7.28378 8.04685C7.39394 7.93204 7.49634 7.81424 7.59346 7.68746C7.60735 7.66996 7.62124 7.65245 7.63555 7.63442C7.7595 7.47522 7.86299 7.30588 7.9626 7.12987C7.96917 7.11832 7.97575 7.10678 7.98252 7.09488C8.27046 6.58365 8.45343 5.95537 8.45897 5.36441C8.45915 5.34914 8.45932 5.33386 8.4595 5.31812C8.46257 4.97464 8.4592 4.64259 8.38447 4.30592C8.37882 4.28039 8.37882 4.28039 8.37306 4.25434C8.16877 3.36478 7.674 2.52628 6.96064 1.96762C6.95082 1.95989 6.94099 1.95215 6.93086 1.94417C6.77172 1.81954 6.60761 1.70894 6.4333 1.60789C6.42289 1.60175 6.41248 1.59561 6.40176 1.58928C6.01016 1.35953 5.57608 1.21744 5.13252 1.14023C5.11036 1.13636 5.0882 1.13248 5.06536 1.1285C3.81932 0.936542 2.57885 1.40007 1.6847 2.28973ZM3.42744 3.60443C3.17491 3.92907 3.04485 4.30311 3.07588 4.71962C3.11127 5.01949 3.22458 5.30732 3.42744 5.52903C3.4419 5.54545 3.45635 5.56187 3.47125 5.57878C3.71043 5.83843 4.04346 6.01057 4.39424 6.03267C4.41681 6.03409 4.41681 6.03409 4.43983 6.03555C4.79414 6.04676 5.15336 5.92359 5.41926 5.68192C5.44688 5.65511 5.47436 5.62814 5.50166 5.60098C5.51285 5.59064 5.52405 5.5803 5.53558 5.56965C5.77922 5.33807 5.90796 4.97921 5.92965 4.64444C5.94429 4.23688 5.7988 3.88109 5.54341 3.57521C5.29756 3.3078 4.9487 3.12907 4.58705 3.11513C4.13913 3.10709 3.73471 3.26576 3.42744 3.60443ZM3.90205 6.66221C3.89022 6.66548 3.8784 6.66875 3.86622 6.67213C3.27674 6.84049 2.8022 7.2576 2.50019 7.79314C2.39445 7.98693 2.26208 8.25519 2.26831 8.48008C2.29439 8.53489 2.34098 8.55952 2.39033 8.59018C2.40133 8.59716 2.41234 8.60414 2.42367 8.61133C2.45921 8.63355 2.495 8.65524 2.53096 8.67674C2.54231 8.68355 2.55365 8.69036 2.56535 8.69738C3.4355 9.21105 4.50933 9.3424 5.47861 9.08921C5.88615 8.97639 6.42611 8.81001 6.73213 8.49688C6.71688 8.00941 6.3598 7.50397 6.03292 7.18228C5.57806 6.75114 4.98301 6.56779 4.37254 6.58331C4.21102 6.59067 4.05766 6.61824 3.90205 6.66221Z" fill="white"/>
</g>
</g>
<defs>
<clipPath id="clip0_2260_48">
<rect width="9" height="10" fill="white"/>
</clipPath>
</defs>
</svg>
